<?xml version="1.0" encoding="utf-8"?>
<!-- Generator: Adobe Illustrator 16.0.0, SVG Export Plug-In . SVG Version: 6.00 Build 0)  -->
<!DOCTYPE svg PUBLIC "-//W3C//DTD SVG 1.1//EN" "http://www.w3.org/Graphics/SVG/1.1/DTD/svg11.dtd">
<svg version="1.1" id="Layer_1" xmlns="http://www.w3.org/2000/svg" xmlns:xlink="http://www.w3.org/1999/xlink" x="0px" y="0px"
	 width="180.9px" height="160.533px" viewBox="0 0 180.9 160.533" enable-background="new 0 0 180.9 160.533" xml:space="preserve">
<path fill="#FFFFFF" d="M11.618,124.032c2.571-1.289,4.058-3.844,4.156-6.527l132.933-67.071l27.714-17.192
	c0.311-0.194,0.426-0.595,0.262-0.925c-0.164-0.329-0.555-0.479-0.896-0.345l-30.309,11.892l-133.017,67.11
	c-2.203-1.491-5.108-1.812-7.657-0.534c-3.753,1.882-5.271,6.448-3.389,10.202C3.297,124.395,7.864,125.911,11.618,124.032z
	 M14.991,113.805c-0.237-0.469-0.515-0.9-0.829-1.297l132.155-66.684l15.711-6.165L14.991,113.805z M3.626,117.501
	c-0.885-0.924-0.56-2.674,0.725-3.908c1.287-1.232,3.047-1.485,3.935-0.561c0.885,0.924,0.561,2.672-0.725,3.906
	C6.273,118.173,4.512,118.425,3.626,117.501z"/>
<path fill="#FFFFFF" d="M175.949,120.641c1.883-3.754,0.365-8.32-3.389-10.202c-2.549-1.277-5.453-0.957-7.656,0.534L31.887,43.863
	L1.58,31.971c-0.342-0.134-0.732,0.016-0.896,0.345c-0.165,0.33-0.051,0.729,0.262,0.925l27.714,17.192l132.932,67.071
	c0.1,2.686,1.584,5.238,4.156,6.527C169.501,125.911,174.066,124.395,175.949,120.641z M15.335,39.66l15.711,6.165l132.156,66.684
	c-0.312,0.396-0.594,0.828-0.828,1.297L15.335,39.66z M169.804,116.939c-1.285-1.234-1.609-2.982-0.725-3.906
	c0.889-0.926,2.646-0.673,3.936,0.561c1.283,1.234,1.609,2.984,0.725,3.908C172.853,118.425,171.091,118.173,169.804,116.939z"/>
<path fill="#ED1B34" d="M89.511,123.88c-19.878,0-37.783-13.303-43.54-32.349c-3.517-11.634-2.292-23.941,3.448-34.655
	c5.74-10.714,15.309-18.55,26.942-22.065c4.099-1.239,8.297-1.867,12.479-1.867c19.188,0,36.651,13.438,42.465,32.678
	c3.476,11.497,2.535,23.639-2.647,34.192c-5.305,10.799-14.525,18.649-25.965,22.107C98.394,123.219,93.958,123.88,89.511,123.88z"
	/>
<path fill="#FFFFFF" d="M131.787,65.477c-7.135-23.604-31.248-38.496-55.568-31.146c-24.32,7.351-38.076,33.025-30.725,57.345
	c6.009,19.882,24.266,32.704,44.018,32.704c4.407,0,8.891-0.639,13.326-1.979C127.156,115.05,138.92,89.081,131.787,65.477z
	 M129.055,67.111c0.21,0.746-0.021,1.55-0.59,2.075c-0.097,0.09-0.192,0.18-0.29,0.27c-0.503,0.47-1.264,0.541-1.842,0.168
	c-0.497-0.321-0.598-1.017-0.17-1.428c0.514-0.494,1.035-0.979,1.564-1.455C128.174,66.337,128.894,66.531,129.055,67.111z
	 M127.445,62.471c0.275,0.67,0.111,1.45-0.434,1.929c-0.953,0.835-1.871,1.683-2.752,2.541c-0.511,0.498-1.292,0.606-1.91,0.252
	c-0.527-0.305-0.623-1.024-0.195-1.458c1.244-1.261,2.535-2.464,3.871-3.616C126.492,61.716,127.211,61.902,127.445,62.471z
	 M125.394,58.196c0.336,0.617,0.207,1.392-0.332,1.846c-1.769,1.491-3.422,3.025-4.953,4.589c-0.508,0.519-1.299,0.63-1.945,0.305
	c-0.574-0.289-0.643-1.059-0.201-1.525c1.861-1.978,3.842-3.822,5.924-5.551C124.37,57.456,125.09,57.642,125.394,58.196z
	 M121.18,54.001c0.525-0.43,1.308-0.338,1.701,0.216s0.319,1.32-0.203,1.751c-2.522,2.081-4.807,4.253-6.866,6.474
	c-0.521,0.56-1.338,0.74-2.041,0.438c-0.586-0.252-0.726-1.01-0.302-1.488C115.838,58.715,118.418,56.26,121.18,54.001z
	 M119.9,50.515c0.453,0.5,0.442,1.282-0.08,1.71c-3.213,2.629-6.035,5.405-8.512,8.245c-0.527,0.605-1.367,0.868-2.123,0.597
	c-0.58-0.208-0.843-0.909-0.451-1.387c2.772-3.387,5.854-6.468,9.229-9.249C118.541,49.955,119.396,49.962,119.9,50.515z
	 M116.457,47.136c0.54,0.469,0.451,1.305-0.1,1.762c-3.998,3.316-7.388,6.858-10.252,10.47c-0.26,0.327-0.701,0.446-1.102,0.326
	c-0.41-0.122-0.768-0.396-0.948-0.785c-0.167-0.362-0.114-0.789,0.128-1.105c3.021-3.955,6.455-7.521,10.279-10.716
	C115.042,46.606,115.887,46.644,116.457,47.136z M112.486,44.068c0.57,0.385,0.683,1.199,0.158,1.645
	c-3.453,2.93-6.443,6.025-9.025,9.186c-0.432,0.526-1.264,0.52-1.583-0.081c-0.39-0.728-0.345-1.625,0.176-2.266
	c2.431-2.99,5.112-5.758,8.039-8.304C110.879,43.701,111.797,43.602,112.486,44.068z M108.027,41.423
	c0.642,0.328,0.703,1.204,0.164,1.684c-2.654,2.363-5.023,4.821-7.131,7.327c-0.437,0.518-1.248,0.465-1.604-0.109
	c-0.453-0.729-0.404-1.671,0.147-2.327c1.863-2.212,3.881-4.295,6.033-6.264C106.285,41.138,107.242,41.022,108.027,41.423z
	 M102.988,39.252c0.707,0.252,0.826,1.174,0.281,1.69c-1.777,1.685-3.424,3.407-4.934,5.158c-0.469,0.546-1.324,0.504-1.738-0.085
	c-0.482-0.685-0.447-1.612,0.098-2.249c1.172-1.366,2.401-2.687,3.688-3.962C101.064,39.129,102.084,38.928,102.988,39.252z
	 M97.398,37.677c0.734,0.153,0.944,1.075,0.424,1.615c-0.865,0.895-1.695,1.795-2.488,2.705c-0.482,0.554-1.348,0.507-1.807-0.069
	c-0.518-0.649-0.502-1.582,0.047-2.207c0.351-0.399,0.707-0.795,1.068-1.188C95.336,37.779,96.394,37.469,97.398,37.677z
	 M89.318,36.889c0.043-0.049,0.109-0.068,0.176-0.068c0.742,0.008,1.484,0.038,2.224,0.087c0.563,0.038,0.763,0.737,0.39,1.164
	c-0.498,0.568-1.379,0.517-1.883-0.046c-0.283-0.317-0.566-0.628-0.848-0.935C89.322,37.032,89.265,36.95,89.318,36.889z
	 M63.563,45.531c0.287-0.223,0.695-0.104,0.88,0.209c0.204,0.344,0.149,0.795-0.175,1.03c-2.652,1.917-5.063,3.933-7.265,6.011
	c-0.254,0.24-0.603-0.14-0.384-0.412C58.666,49.811,60.996,47.521,63.563,45.531z M48.963,67.344
	c0.64-2.294,1.812-4.401,3.308-6.255c3.595-4.457,7.74-8.426,12.428-11.898c0.619-0.458,1.511-0.31,1.869,0.375
	c0.403,0.771,0.145,1.713-0.546,2.242c-6.968,5.346-12.218,11.388-16.17,17.395c-0.414,0.628-1.461,0.424-1.288-0.308
	C48.688,68.374,48.82,67.859,48.963,67.344z M47.51,80.305c-0.074-1.551,0.316-3.09,1.046-4.46
	c4.701-8.828,10.891-16.2,18.526-22.104c0.565-0.438,1.403-0.3,1.699,0.35c0.327,0.718,0.143,1.574-0.473,2.066
	c-9.34,7.457-15.468,16.195-19.443,24.04c-0.052,0.103-0.103,0.205-0.154,0.307C48.422,81.083,47.542,80.953,47.51,80.305z
	 M48.691,88.333c-0.236-0.949-0.132-1.951,0.255-2.85c0.604-1.402,1.259-2.818,1.98-4.242c4.696-9.271,10.839-16.96,18.371-23.074
	c0.475-0.386,1.169-0.14,1.394,0.429c0.28,0.712,0.055,1.523-0.53,2.017c-7.264,6.11-12.483,12.968-16.173,19.299
	c-1.679,2.881-3.108,5.74-4.328,8.514C49.462,88.873,48.81,88.808,48.691,88.333z M50.583,94.164
	c-0.242-0.599-0.258-1.272-0.021-1.873c1.424-3.604,3.198-7.403,5.42-11.218c4.179-7.171,9.221-13.281,15.084-18.351
	c0.422-0.363,1.071-0.161,1.246,0.367c0.231,0.696-0.019,1.456-0.567,1.943c-5.304,4.719-9.451,9.79-12.636,14.594
	c-3.322,5.012-5.843,10.005-7.755,14.576C51.211,94.549,50.722,94.51,50.583,94.164z M60.162,85.159
	c-0.587-0.756-0.683-1.803-0.175-2.614c0.412-0.657,1.354-0.634,1.829-0.021c3.96,5.104,8.273,9.285,12.689,12.705
	c0.826,0.64,1.3,1.66,1.147,2.693c-0.112,0.762-0.98,1.16-1.604,0.71C68.833,94.867,64.205,90.368,60.162,85.159z M73.546,100.984
	c0.832,0.586,1.244,1.619,1.006,2.607c-0.196,0.814-1.135,1.199-1.833,0.736c-5.703-3.778-10.795-8.418-15.269-13.903
	c-0.679-0.832-0.833-1.994-0.328-2.942c0.381-0.716,1.362-0.867,1.869-0.235C63.542,92.919,68.5,97.419,73.546,100.984z
	 M62.998,80.446c-0.508-0.676-0.54-1.609-0.043-2.295c0.405-0.56,1.233-0.556,1.649-0.005c3.262,4.308,6.789,7.973,10.416,11.085
	c0.817,0.7,1.324,1.725,1.255,2.799c-0.047,0.736-0.932,1.053-1.509,0.591C70.36,89.093,66.439,85.028,62.998,80.446z
	 M65.955,76.293c-0.449-0.606-0.466-1.447,0.016-2.028c0.395-0.477,1.131-0.49,1.502,0.006c2.392,3.188,4.932,6.032,7.548,8.562
	c0.808,0.78,1.328,1.831,1.362,2.954c0.02,0.662-0.744,1.065-1.237,0.623C71.749,83.363,68.688,79.986,65.955,76.293z
	 M70.478,73.722c-3.158-3.979,1.616-6.3,3.032-2.55c0.837,2.216,1.796,3.585,2.152,6.104c0.164,1.158-1.216,1.028-2.007,0.168
	C72.55,76.242,71.492,75.002,70.478,73.722z M71.074,114.236c-0.318,0.753-1.229,1.021-1.947,0.633
	c-1.609-0.873-3.163-1.852-4.643-2.935c-4.944-3.613-8.946-8.179-11.838-13.439c-0.163-0.297-0.225-0.648-0.107-0.966
	c0.072-0.195,0.316-0.291,0.453-0.134c5.519,6.358,11.462,11.168,17.438,14.784C71.129,112.605,71.394,113.485,71.074,114.236z
	 M54.96,96.246c-0.781-0.898-1.025-2.169-0.537-3.255c0.365-0.812,1.447-0.978,2.022-0.299c4.899,5.789,10.193,10.301,15.548,13.809
	c0.872,0.572,1.312,1.642,0.988,2.633c-0.283,0.865-1.302,1.232-2.078,0.754C65.012,106.249,59.697,101.694,54.96,96.246z
	 M73.487,116.927c-0.548-0.224-0.816-0.848-0.586-1.393c6.836-16.192,6.588-31.273,4.337-42.797
	c-2.48-12.701-7.529-22.748-11-28.544c-0.143-0.237-0.05-0.541,0.185-0.688c0.233-0.146,0.545-0.108,0.696,0.12
	c3.646,5.522,8.747,14.655,11.669,26.07c4.142,16.173,2.844,31.747-3.801,46.562C74.729,116.84,74.078,117.167,73.487,116.927z
	 M77.794,118.399c-0.622-0.178-0.937-0.864-0.677-1.456c8.122-18.465,7.101-35.361,3.91-47.82
	c-2.983-11.649-8.069-20.865-11.799-26.539c-0.18-0.272-0.147-0.655,0.142-0.81c0.304-0.164,0.672-0.035,0.875,0.245
	c3.891,5.366,9.049,13.771,12.394,24.277c5.567,17.487,4.51,34.641-3.103,51.227C79.229,118.193,78.503,118.6,77.794,118.399z
	 M82.588,119.458c-0.691-0.111-1.088-0.846-0.803-1.484c9.25-20.739,7.245-39.262,3.025-52.465
	c-3.394-10.615-8.475-19.024-12.417-24.507c-0.193-0.27-0.095-0.648,0.208-0.784c0.342-0.15,0.748-0.059,0.98,0.235
	c4.061,5.123,9.175,12.742,12.854,22.273c7.169,18.567,6.529,37.202-1.854,55.604C84.23,119.104,83.426,119.593,82.588,119.458z
	 M88.025,119.962c-0.805-0.023-1.319-0.857-0.998-1.596c10.005-22.908,6.857-42.756,1.562-56.472
	c-3.635-9.417-8.549-16.942-12.605-22.165c-0.23-0.297-0.147-0.744,0.209-0.862c0.434-0.145,0.909,0.007,1.206,0.354
	c4.129,4.833,9.036,11.613,12.866,20.02c8.785,19.283,8.754,39.164-0.037,59.277C89.845,119.395,88.982,119.989,88.025,119.962z
	 M94.025,119.669c-0.867,0.107-1.463-0.805-1.129-1.611c10.295-24.922,5.854-45.767-0.529-59.774
	c-3.709-8.142-8.333-14.746-12.375-19.612c-0.263-0.316-0.139-0.812,0.264-0.9c0.531-0.116,1.085,0.065,1.451,0.468
	c4.045,4.447,8.596,10.334,12.392,17.515c10.325,19.54,11.168,40.285,2.562,61.822C96.214,118.691,95.219,119.52,94.025,119.669z
	 M100.769,118.278c-0.899,0.263-1.679-0.646-1.351-1.523c9.942-26.6,4.149-48.024-3.278-62.083
	c-3.552-6.719-7.693-12.295-11.512-16.666c-0.309-0.354-0.16-0.934,0.307-0.981c0.673-0.071,1.342,0.182,1.808,0.672
	c3.718,3.91,7.687,8.771,11.19,14.563c11.713,19.36,13.657,40.541,5.85,63.104C103.299,116.76,102.185,117.864,100.769,118.278z
	 M107.408,115.693c-0.27,0.133-0.596,0.123-0.834-0.062c-0.229-0.178-0.301-0.49-0.209-0.766c0.086-0.261,0.17-0.521,0.254-0.781
	c0.197-0.617,0.932-0.897,1.439-0.497c0.082,0.065,0.166,0.131,0.248,0.196c0.518,0.413,0.434,1.221-0.154,1.528
	C107.906,115.442,107.658,115.569,107.408,115.693z M112.496,112.712c-0.661,0.451-1.545,0.394-2.167-0.108
	c-0.498-0.402-0.998-0.797-1.499-1.181c-0.698-0.533-1.016-1.438-0.797-2.288c0.173-0.667,0.966-0.949,1.514-0.531
	c1.033,0.788,2.05,1.61,3.053,2.467C113.117,111.512,113.06,112.327,112.496,112.712z M116.424,109.665
	c-0.582,0.513-1.456,0.516-2.045,0.01c-1.414-1.214-2.838-2.351-4.269-3.409c-0.748-0.554-1.065-1.511-0.891-2.425
	c0.137-0.715,0.971-1.052,1.557-0.619c1.931,1.418,3.81,2.955,5.644,4.602C116.97,108.316,116.98,109.177,116.424,109.665z
	 M120.012,106.1c-0.55,0.615-1.495,0.58-2.11,0.033c-2.193-1.949-4.408-3.708-6.635-5.287c-0.85-0.602-1.287-1.633-1.164-2.666
	c0.092-0.759,0.938-1.188,1.563-0.753c2.808,1.946,5.526,4.126,8.162,6.536C120.445,104.528,120.568,105.478,120.012,106.1z
	 M123.256,101.969c-0.458,0.67-1.397,0.789-2,0.244c-3.056-2.768-6.147-5.166-9.246-7.234c-0.942-0.631-1.469-1.728-1.418-2.859
	c0.035-0.808,0.905-1.323,1.584-0.886c3.743,2.413,7.36,5.227,10.851,8.436C123.672,100.261,123.75,101.245,123.256,101.969z
	 M126.095,97.182c-0.39,0.769-1.404,0.923-2.046,0.348c-3.887-3.489-7.812-6.404-11.728-8.819c-1.055-0.648-1.688-1.807-1.75-3.043
	c-0.043-0.856,0.859-1.459,1.601-1.025c4.638,2.717,9.117,6.025,13.44,9.908C126.353,95.214,126.545,96.298,126.095,97.182z
	 M128.424,91.635c-0.287,0.852-1.342,1.148-2.019,0.559c-4.768-4.163-9.564-7.51-14.315-10.154
	c-1.187-0.661-1.978-1.861-2.168-3.205c-0.127-0.885,0.748-1.612,1.542-1.202c5.525,2.853,10.885,6.497,16.068,10.925
	C128.419,89.314,128.797,90.53,128.424,91.635z M130.04,85.228c-0.16,0.944-1.29,1.344-2.029,0.731
	c-5.671-4.683-11.338-8.273-16.897-10.978c-1.305-0.635-2.228-1.855-2.574-3.265c-0.229-0.925,0.693-1.721,1.566-1.337
	c6.346,2.79,12.53,6.58,18.547,11.35C129.705,82.566,130.265,83.902,130.04,85.228z M130.609,77.817
	c0.015,1.054-1.252,1.531-2.092,0.896c-6.472-4.895-12.879-8.477-19.101-11.021c-1.449-0.593-2.565-1.796-3.103-3.268
	c-0.342-0.935,0.582-1.824,1.521-1.491c6.994,2.477,13.858,6.097,20.58,10.86C129.728,74.725,130.584,76.206,130.609,77.817z"/>
<g>
	<path fill="#FFFFFF" d="M32.376,22.263l4.273-3.321c3.126-2.431,6.101-1.831,8.923,1.799c0.837,1.077,1.387,2.134,1.649,3.169
		c0.262,1.037,0.15,2.12-0.336,3.25l9.449,6.239l-2.814,2.188l-8.632-5.996l-1.589,1.235l6.157,7.92l-2.657,2.066L32.376,22.263z
		 M41.475,28.483l1.511-1.176c0.469-0.363,0.792-0.72,0.969-1.065c0.176-0.346,0.244-0.698,0.203-1.058
		c-0.042-0.356-0.174-0.734-0.399-1.132c-0.225-0.396-0.52-0.829-0.884-1.298c-0.364-0.469-0.711-0.86-1.04-1.177
		c-0.329-0.315-0.674-0.535-1.035-0.658s-0.736-0.131-1.126-0.022c-0.39,0.107-0.828,0.351-1.314,0.729l-1.381,1.073L41.475,28.483z
		"/>
	<path fill="#FFFFFF" d="M46.697,12.076l8.97-4.492l1.418,2.833l-5.96,2.985l3.088,6.167l5.193-2.602l1.418,2.833l-5.193,2.602
		l3.088,6.167l5.96-2.985l1.507,3.01l-8.97,4.492L46.697,12.076z"/>
	<path fill="#FFFFFF" d="M61.021,5.543l4.807-1.312c1.846-0.505,3.398-0.375,4.656,0.388c1.257,0.763,2.138,2.067,2.643,3.914
		l2.895,10.601c0.58,2.123,0.492,3.829-0.262,5.117c-0.754,1.29-2.097,2.198-4.028,2.725l-4.521,1.234L61.021,5.543z M69.624,24.265
		l1.496-0.408c0.913-0.249,1.498-0.654,1.755-1.216c0.258-0.56,0.253-1.328-0.014-2.305L69.878,9.418
		c-0.244-0.892-0.612-1.531-1.106-1.921c-0.495-0.389-1.219-0.454-2.174-0.193l-1.496,0.409L69.624,24.265z"/>
	<path fill="#FFFFFF" d="M86.136,0.984l4.914,0.169c1.077,0.037,1.99,0.233,2.737,0.59c0.747,0.355,1.353,0.817,1.817,1.383
		c0.465,0.566,0.789,1.21,0.975,1.932c0.184,0.723,0.263,1.469,0.236,2.237l-0.029,0.857c-0.021,0.638-0.09,1.175-0.204,1.61
		c-0.114,0.437-0.276,0.816-0.485,1.14c-0.209,0.322-0.461,0.605-0.756,0.849c-0.294,0.243-0.632,0.468-1.014,0.675
		c0.779,0.401,1.342,0.978,1.689,1.727c0.348,0.75,0.502,1.739,0.459,2.971l-0.045,1.319c-0.07,2.066-0.626,3.633-1.664,4.697
		c-1.039,1.065-2.656,1.56-4.854,1.483l-4.584-0.158L86.136,0.984z M88.808,21.218l1.45,0.05c0.681,0.023,1.218-0.057,1.61-0.241
		c0.391-0.186,0.691-0.449,0.902-0.794c0.209-0.346,0.344-0.759,0.405-1.241s0.101-1.009,0.121-1.581
		c0.021-0.594,0.005-1.111-0.045-1.554c-0.052-0.442-0.177-0.815-0.375-1.119c-0.199-0.305-0.481-0.539-0.851-0.706
		s-0.861-0.261-1.477-0.282l-1.484-0.051L88.808,21.218z M89.169,10.731l1.518,0.052c1.121,0.039,1.883-0.216,2.287-0.763
		c0.404-0.548,0.625-1.36,0.662-2.438c0.037-1.055-0.15-1.854-0.561-2.396c-0.411-0.542-1.178-0.833-2.299-0.872l-1.385-0.049
		L89.169,10.731z"/>
	<path fill="#FFFFFF" d="M106.976,3.108l2.728,0.65l-0.351,24.072l-3.274-0.781l0.209-5.141l-4.462-1.064l-2.135,4.682l-3.274-0.782
		L106.976,3.108z M106.785,10.016l-0.064-0.016l-3.582,7.898l3.274,0.781L106.785,10.016z"/>
	<path fill="#FFFFFF" d="M119.853,6.882l4.893,2.312c3.58,1.69,4.389,4.616,2.424,8.772c-0.583,1.233-1.277,2.201-2.083,2.903
		s-1.824,1.091-3.052,1.167l-1.301,11.248l-3.223-1.522l1.452-10.409l-1.819-0.86l-4.287,9.07l-3.043-1.438L119.853,6.882z
		 M118.413,17.807l1.729,0.818c0.537,0.254,1,0.381,1.389,0.382c0.39,0.001,0.734-0.097,1.035-0.296
		c0.299-0.199,0.576-0.488,0.83-0.867c0.252-0.379,0.504-0.838,0.758-1.375s0.447-1.022,0.58-1.459
		c0.133-0.436,0.174-0.843,0.121-1.221c-0.053-0.377-0.215-0.716-0.488-1.015c-0.272-0.3-0.688-0.58-1.243-0.844l-1.581-0.746
		L118.413,17.807z"/>
	<path fill="#FFFFFF" d="M135.621,15.105l2.562,1.973l-4.613,14.317l0.052,0.041l8.639-11.217l2.667,2.055l-14.338,18.613
		l-2.51-1.934l4.541-14.331l-0.053-0.041l-8.619,11.189l-2.668-2.055L135.621,15.105z"/>
</g>
<g>
	<path fill="#FFFFFF" d="M38.221,125.962l7.19-11.888l2.223,2.646l-5.248,7.832l0.041,0.051l8.623-3.814l2.223,2.645l-12.953,5.029
		l-7.376,6.193l-2.099-2.5L38.221,125.962z"/>
	<path fill="#FFFFFF" d="M55.445,124.917l2.119,1.707l-10.329,20.936l-2.542-2.047l2.324-4.416l-3.464-2.791l-3.819,3.211
		l-2.543-2.047L55.445,124.917z M52.402,130.889l-0.05-0.041l-6.425,5.426l2.542,2.047L52.402,130.889z"/>
	<path fill="#FFFFFF" d="M61.905,129.895l4.741,2.252c3.469,1.646,4.247,4.484,2.334,8.512c-0.568,1.195-1.243,2.131-2.026,2.811
		c-0.783,0.68-1.771,1.055-2.961,1.125l-1.281,10.904l-3.122-1.48l1.427-10.092l-1.763-0.838l-4.173,8.789l-2.948-1.4
		L61.905,129.895z M60.489,140.487l1.677,0.797c0.52,0.246,0.969,0.371,1.346,0.373c0.377,0.002,0.711-0.092,1.003-0.285
		c0.292-0.191,0.561-0.471,0.806-0.838s0.491-0.812,0.738-1.332c0.247-0.521,0.436-0.992,0.565-1.414s0.169-0.818,0.119-1.184
		c-0.051-0.367-0.208-0.695-0.471-0.986c-0.264-0.289-0.666-0.562-1.205-0.82l-1.532-0.727L60.489,140.487z"/>
	<path fill="#FFFFFF" d="M72.957,134.979l3.076,0.611l2.155,14.426l0.063,0.014l2.678-13.465l3.202,0.637l-4.445,22.346l-3.013-0.6
		l-2.224-14.406l-0.063-0.014l-2.672,13.434l-3.201-0.637L72.957,134.979z"/>
	<path fill="#FFFFFF" d="M103.031,142.114l-3.226,0.496l-0.112-0.729c-0.112-0.738-0.385-1.35-0.815-1.834
		c-0.431-0.482-1.058-0.664-1.879-0.537c-0.442,0.068-0.793,0.209-1.052,0.42c-0.26,0.215-0.447,0.465-0.564,0.75
		c-0.117,0.289-0.182,0.611-0.191,0.969s0.016,0.727,0.074,1.105c0.067,0.443,0.141,0.816,0.219,1.117
		c0.08,0.301,0.199,0.551,0.359,0.754c0.161,0.201,0.375,0.369,0.645,0.5c0.268,0.131,0.625,0.248,1.074,0.354l2.617,0.602
		c0.76,0.164,1.389,0.396,1.889,0.697s0.908,0.68,1.228,1.139c0.317,0.457,0.569,1.002,0.752,1.633
		c0.183,0.629,0.338,1.355,0.464,2.18c0.146,0.947,0.186,1.844,0.121,2.684c-0.064,0.842-0.27,1.584-0.611,2.23
		c-0.344,0.646-0.849,1.193-1.513,1.641c-0.666,0.447-1.515,0.752-2.547,0.91c-0.78,0.121-1.528,0.094-2.246-0.076
		c-0.717-0.17-1.354-0.455-1.912-0.855c-0.558-0.398-1.028-0.904-1.415-1.514c-0.386-0.611-0.636-1.295-0.752-2.055l-0.185-1.201
		l3.226-0.496l0.155,1.012c0.091,0.59,0.347,1.096,0.769,1.518c0.42,0.42,1.041,0.566,1.864,0.441
		c0.548-0.084,0.963-0.229,1.244-0.434c0.28-0.205,0.479-0.463,0.594-0.771s0.16-0.678,0.138-1.105s-0.072-0.896-0.15-1.402
		c-0.09-0.59-0.188-1.072-0.287-1.443c-0.102-0.373-0.236-0.666-0.41-0.877c-0.173-0.211-0.392-0.371-0.656-0.482
		c-0.266-0.109-0.611-0.219-1.039-0.326l-2.455-0.594c-1.479-0.355-2.527-0.965-3.146-1.832c-0.619-0.865-1.037-2.004-1.253-3.416
		c-0.13-0.844-0.137-1.664-0.021-2.459c0.115-0.793,0.357-1.5,0.728-2.119c0.369-0.617,0.877-1.143,1.522-1.578
		c0.646-0.434,1.432-0.721,2.359-0.863c0.801-0.123,1.557-0.088,2.268,0.105c0.709,0.193,1.338,0.496,1.888,0.908
		c0.549,0.412,0.995,0.898,1.341,1.461c0.346,0.561,0.566,1.16,0.664,1.791L103.031,142.114z"/>
	<path fill="#FFFFFF" d="M103.167,135.278l3.021-1.238l3.703,9.031l3.73-1.529l-3.702-9.031l3.021-1.238l8.642,21.082l-3.021,1.238
		l-3.848-9.387l-3.73,1.529l3.849,9.387l-3.021,1.238L103.167,135.278z"/>
	<path fill="#FFFFFF" d="M117.498,134.86c-0.54-0.74-0.889-1.49-1.043-2.248c-0.155-0.758-0.158-1.477-0.006-2.154
		s0.423-1.305,0.812-1.877c0.388-0.572,0.849-1.055,1.384-1.443c0.533-0.389,1.133-0.68,1.797-0.875
		c0.664-0.191,1.342-0.258,2.035-0.193c0.693,0.062,1.375,0.285,2.049,0.666s1.28,0.941,1.819,1.684l7.083,9.727
		c0.553,0.758,0.904,1.512,1.053,2.262c0.149,0.748,0.148,1.463-0.004,2.141c-0.152,0.68-0.423,1.305-0.812,1.875
		c-0.388,0.574-0.849,1.055-1.384,1.443c-0.534,0.389-1.133,0.68-1.797,0.875c-0.664,0.193-1.342,0.258-2.035,0.195
		s-1.373-0.281-2.039-0.652c-0.668-0.373-1.276-0.939-1.829-1.697L117.498,134.86z M127.218,142.665
		c0.465,0.639,0.984,0.98,1.557,1.025c0.574,0.043,1.102-0.109,1.584-0.461c0.482-0.354,0.791-0.809,0.926-1.367
		c0.134-0.559-0.032-1.158-0.497-1.795l-7.083-9.727c-0.465-0.639-0.984-0.979-1.557-1.023c-0.574-0.043-1.103,0.109-1.584,0.461
		c-0.483,0.352-0.791,0.807-0.926,1.367c-0.134,0.559,0.032,1.156,0.497,1.795L127.218,142.665z"/>
	<path fill="#FFFFFF" d="M124.361,122.901l3.184-3.72c0.583-0.681,1.186-1.203,1.807-1.569c0.623-0.366,1.34-0.565,2.155-0.6
		c0.813-0.032,1.595,0.13,2.343,0.488c0.745,0.358,1.639,0.981,2.676,1.869c0.762,0.652,1.375,1.254,1.842,1.809
		s0.811,1.178,1.031,1.871c0.275,0.826,0.328,1.658,0.16,2.496c-0.17,0.838-0.65,1.719-1.441,2.643l-1.081,1.264l6.759,5.785
		l-2.123,2.479L124.361,122.901z M134.701,127.454l1.02-1.191c0.43-0.502,0.69-0.953,0.78-1.354s0.065-0.771-0.075-1.117
		c-0.14-0.344-0.378-0.682-0.714-1.012c-0.335-0.328-0.722-0.682-1.16-1.057c-0.405-0.346-0.801-0.662-1.187-0.951
		c-0.385-0.287-0.764-0.484-1.135-0.594c-0.373-0.105-0.746-0.096-1.121,0.031c-0.377,0.129-0.772,0.436-1.188,0.92l-1.103,1.289
		L134.701,127.454z"/>
</g>
<g>
	<path fill="#FFFFFF" d="M13.301,81.465l-0.015,0.24l-0.06,0.81l-0.015,0.15l-0.06,0.105l-0.075,0.06l-1.965,0.06h-0.24l-0.795-0.06
		l-0.24,0.015l-0.78,0.061l-0.24,0.015H7.781l-0.78-0.06h-0.24l-1.29,0.074l-0.51-0.029l-0.18-0.03L4.676,82.8l-0.045-0.104
		l-0.03-0.165l-0.03-0.346l-0.015-0.239l0.015-0.226v-0.225l0.06-0.795v-0.24l0.015-0.795l-0.015-0.24L4.586,78.63l-0.015-0.24
		l0.03-0.81v-1.275l0.06-0.795L4.646,75.27l-0.045-0.796l-0.015-0.239v-0.36l0.03-0.45V73.2l0.045-0.78l0.015-0.21l0.045-0.12
		l0.075-0.06l0.12-0.016l0.195-0.029l0.975,0.06l0.915-0.015h0.24l0.9,0.06h0.24l0.9-0.06h0.24l2.04,0.03l0.255-0.016L12.326,72
		h0.375l0.21,0.045l0.09,0.075l0.03,0.104l0.03,0.195v0.405l-0.03,0.375v0.255l0.015,0.375l0.015,0.225l-0.015,0.226l-0.03,0.18
		l-0.06,0.105l-0.075,0.06l-0.18,0.03h-0.12l-0.24,0.015l-1.41-0.03h-0.24l-0.765,0.03h-0.24l-0.78-0.03l-0.675-0.045H8.006
		l-0.12,0.016l-0.15,0.029l-0.075,0.075l-0.015,0.09l-0.03,0.165l-0.03,0.36v0.24l0.015,0.255l0.015,0.165l0.03,0.104l0.06,0.075
		l0.165,0.045l0.48,0.03l0.48-0.03h1.425l1.68-0.09l0.465,0.03l0.165,0.03l0.09,0.074l0.045,0.09l0.015,0.165l0.03,0.256
		l0.015,0.255v0.495l0.03,0.345l-0.03,0.45l-0.03,0.18l-0.06,0.104l-0.105,0.075l-0.15,0.03h-0.3l-0.675-0.075l-0.24-0.015
		l-1.2,0.075l-0.96-0.03h-0.24l-0.6-0.045L7.946,78.63l-0.18,0.016L7.691,78.69l-0.045,0.104L7.631,79.02l-0.045,0.375l-0.015,0.239
		v0.33l0.015,0.15l0.045,0.104l0.06,0.061l0.165,0.015l0.825,0.03h0.24l0.81-0.061l1.065,0.061h0.24l1.065-0.061h0.225l0.225,0.016
		l0.54,0.06l0.09,0.045l0.06,0.09l0.015,0.165L13.301,81.465z"/>
	<path fill="#FFFFFF" d="M24.491,79.515l-0.015,0.256l-0.03,0.255l-0.045,0.239l-0.075,0.33l-0.075,0.21l-0.135,0.301l-0.105,0.194
		l-0.18,0.271l-0.15,0.18l-0.18,0.18l-0.18,0.165l-0.3,0.195l-0.195,0.135l-0.225,0.12l-0.21,0.105l-0.345,0.12l-0.45,0.149
		l-0.24,0.045l-0.375,0.061l-0.225,0.029l-0.33,0.03l-0.21,0.015l-0.345,0.016l-0.72,0.045h-0.33l-0.21-0.015l-0.345-0.03
		l-0.225-0.03l-0.255-0.045l-0.225-0.075l-0.33-0.104l-0.21-0.105l-0.225-0.104l-0.21-0.105l-0.195-0.12l-0.48-0.33l-0.18-0.149
		l-0.27-0.21l-0.18-0.15l-0.165-0.165l-0.12-0.135l-0.015-0.105l0.075-0.135l0.06-0.075l0.15-0.165l0.42-0.39l0.135-0.165
		l0.255-0.39l0.135-0.165l0.15-0.165l0.165-0.09l0.165,0.029l0.165,0.12l0.48,0.33l0.225,0.12l0.21,0.105l0.345,0.165l0.225,0.074
		l0.24,0.075l0.24,0.045l0.345,0.016l0.24,0.015l0.945-0.061l0.24-0.029l0.12-0.03l0.225-0.09l0.195-0.12l0.15-0.15l0.075-0.104
		l0.09-0.226l-0.015-0.255l-0.03-0.12l-0.12-0.21l-0.075-0.09l-0.195-0.149l-0.12-0.045l-0.225-0.091l-0.255-0.06l-0.255-0.045
		l-1.425-0.135l-0.45-0.09l-0.24-0.061l-0.33-0.12l-0.225-0.075l-0.225-0.104l-0.51-0.255l-0.195-0.135l-0.225-0.136l-0.195-0.135
		l-0.255-0.21l-0.135-0.195l-0.135-0.225l-0.09-0.225l-0.105-0.315l-0.045-0.225l-0.045-0.33l-0.03-0.48l0.015-0.24l0.03-0.359
		l0.045-0.226l0.06-0.194l0.075-0.226l0.15-0.33l0.105-0.21l0.12-0.18l0.15-0.165l0.24-0.225l0.195-0.15l0.195-0.135l0.21-0.105
		l0.285-0.165l0.45-0.18l0.225-0.075l0.345-0.06l0.24-0.045l0.45-0.061l0.33-0.06l0.24-0.03l0.225-0.015h0.24l0.45,0.045
		l0.225,0.029l0.105,0.03l0.24,0.03l0.51,0.09l0.255,0.061l0.24,0.074l0.255,0.075l0.24,0.09l0.225,0.105l0.225,0.09l0.285,0.165
		l0.21,0.104l0.195,0.136l0.135,0.135v0.15l-0.09,0.164l-0.165,0.301l-0.12,0.18l-0.57,0.75l-0.165,0.21l-0.18,0.15l-0.12,0.045
		l-0.105-0.016l-0.15-0.074l-0.225-0.136l-0.225-0.09l-0.105-0.045l-0.225-0.075l-0.12-0.029l-0.255-0.061l-0.345-0.075l-0.24-0.015
		l-0.39-0.03h-0.39l-0.255,0.016l-0.255,0.045l-0.24,0.074l-0.09,0.046l-0.18,0.135l-0.075,0.09l-0.105,0.21l-0.03,0.24l0.045,0.194
		l0.12,0.195l0.165,0.15l0.18,0.09l0.105,0.045l0.225,0.045l0.375,0.045l0.51,0.03l0.255,0.045l0.51,0.12l0.48,0.149l0.345,0.075
		l0.225,0.061l0.42,0.149l0.3,0.135l0.21,0.105l0.21,0.12l0.195,0.12l0.435,0.359l0.165,0.181l0.15,0.18l0.18,0.271l0.12,0.194
		l0.105,0.226l0.06,0.225l0.06,0.33l0.03,0.225L24.491,79.515z"/>
	<path fill="#FFFFFF" d="M34.542,73.231l-0.015,0.225l0.015,0.45l-0.015,0.24l-0.015,0.119l-0.03,0.181l-0.045,0.104l-0.09,0.075
		l-0.18,0.03h-0.24l-0.45-0.045l-0.24-0.016l-0.69,0.045h-0.24l-0.375-0.029h-0.225l-0.105,0.015l-0.15,0.045l-0.06,0.09
		l-0.015,0.195l-0.06,0.885v0.24l0.06,0.9l-0.015,0.239l-0.06,0.9l-0.015,0.24l0.03,0.885v1.38l-0.03,0.885l0.015,0.226l0.075,0.675
		l0.015,0.24l-0.045,0.18l-0.075,0.075l-0.195,0.03l-0.285-0.016l-0.375-0.045l-0.255-0.015l-0.675,0.045h-0.24l-0.675-0.045
		l-0.18-0.016l-0.09-0.045l-0.03-0.165v-0.255l0.045-0.63l0.015-0.24v-1.125l0.015-0.899v-0.24l0.015-0.885v-0.24l-0.06-0.9
		l-0.015-0.239v-1.141l-0.03-0.885v-0.21l-0.045-0.12l-0.15-0.03h-0.225l-0.48,0.03h-0.27l-0.405-0.03l-0.255-0.015l-0.255,0.015
		l-0.345,0.016h-0.225l-0.12-0.016l-0.165-0.029l-0.09-0.061l-0.06-0.09l-0.03-0.15v-0.104l-0.015-0.24l0.03-0.45v-0.225
		l-0.045-0.57l0.015-0.239l0.045-0.195l0.06-0.105l0.09-0.045l0.15-0.029h0.345l0.555,0.045h0.24l0.87-0.061h0.24l0.885,0.075h0.24
		l1.11-0.075l0.87,0.016h0.24l1.125-0.016h1.11l0.495-0.03l0.255,0.016l0.12,0.015l0.18,0.03l0.105,0.06l0.075,0.105l0.03,0.18
		v0.105l0.015,0.225L34.542,73.231z"/>
</g>
<g>
	<path fill="#FFFFFF" d="M145.216,80.236l0.016,0.075l0.149,0.029l0.21,0.016l0.57-0.016h1.215l0.766,0.016h0.239l1.755-0.03
		l0.24-0.015l0.495-0.046h0.255l0.195,0.046l0.09,0.135l0.029,0.21l0.016,0.225l0.015,0.24v0.615l0.03,0.375l-0.016,0.239
		l-0.015,0.211l-0.03,0.149l-0.06,0.09l-0.09,0.045l-0.479,0.075l-0.211,0.016l-0.33-0.016l-0.225-0.015l-1.096-0.061h-0.84
		l-1.319,0.075h-2.175l-1.096-0.015l-0.84-0.03l-0.18-0.015l-0.105-0.061l-0.029-0.09l-0.016-0.165l0.03-0.899v-0.24l-0.045-0.915
		l0.015-0.24l0.045-0.45l0.09-0.45l0.045-0.239l0.076-0.255l0.074-0.24l0.045-0.12l0.105-0.24l0.119-0.194l0.256-0.271l0.165-0.15
		l0.271-0.21l0.18-0.119l0.3-0.195l0.194-0.105l0.315-0.149l0.226-0.075l0.375-0.12l0.254-0.06l0.256-0.045l0.24-0.03l0.765-0.045
		l0.135-0.016l0.271-0.015l0.375-0.015l0.27-0.061l0.12-0.06l0.226-0.135l0.104-0.105l0.135-0.195l0.09-0.314v-0.33l-0.03-0.12
		l-0.074-0.24l-0.061-0.104l-0.15-0.181l-0.194-0.09l-0.33-0.09l-0.21-0.03l-0.225-0.015h-0.226l-0.21,0.015l-0.21,0.045
		l-0.315,0.105l-0.194,0.104l-0.091,0.061l-0.149,0.165l-0.075,0.09l-0.104,0.225l-0.075,0.21l-0.135,0.091l-0.225,0.06h-0.136
		l-0.255,0.015l-0.63-0.029h-0.63l-0.256-0.016l-0.389-0.045l-0.195-0.029l-0.105-0.061l-0.045-0.075v-0.255l0.029-0.225
		l0.031-0.135l0.045-0.24l0.029-0.105l0.075-0.225l0.149-0.285l0.121-0.21l0.135-0.195l0.164-0.194l0.181-0.165l0.181-0.15
		l0.284-0.195l0.21-0.12l0.45-0.239l0.255-0.105l0.24-0.075l0.33-0.074l0.24-0.045l0.225-0.046l0.21-0.029l0.33-0.016l0.239-0.015
		h0.496l0.345-0.015h0.239l0.226,0.015l0.226,0.045l0.314,0.075l0.225,0.075l0.48,0.149l0.225,0.075l0.225,0.09l0.316,0.15
		l0.209,0.12l0.195,0.165l0.195,0.194l0.164,0.195l0.15,0.195l0.195,0.27l0.105,0.21l0.104,0.226l0.075,0.225l0.074,0.21
		l0.045,0.225l0.045,0.36v0.226l-0.014,0.329l-0.031,0.21l-0.074,0.346l-0.061,0.225l-0.09,0.255l-0.104,0.226l-0.165,0.285
		l-0.135,0.194l-0.195,0.255l-0.165,0.165l-0.24,0.226l-0.194,0.12l-0.315,0.165l-0.226,0.09l-0.254,0.074l-0.24,0.075l-0.256,0.045
		l-0.24,0.045l-0.344,0.03l-0.24,0.03l-0.256,0.045l-0.239,0.045l-0.36,0.03l-0.255,0.015h-0.12l-0.27,0.015h-0.12l-0.255,0.046
		l-0.12,0.045l-0.226,0.104l-0.09,0.075l-0.164,0.165l-0.121,0.18l-0.09,0.21l-0.029,0.12l-0.045,0.195L145.216,80.236z"/>
	<path fill="#FFFFFF" d="M162.886,76.651l0.016,0.239l-0.016,0.511v0.885l-0.014,0.33l-0.016,0.225l-0.016,0.33l-0.045,0.226
		l-0.061,0.345l-0.148,0.479l-0.105,0.226l-0.15,0.3l-0.135,0.21l-0.15,0.225l-0.15,0.21l-0.164,0.21l-0.18,0.181l-0.24,0.255
		l-0.18,0.135l-0.301,0.15l-0.195,0.104l-0.299,0.136l-0.211,0.09l-0.314,0.12l-0.211,0.074l-0.33,0.075l-0.225,0.045l-0.254,0.03
		l-0.256,0.015l-0.359,0.03l-0.24-0.015l-0.391-0.03l-0.24-0.03l-0.81-0.135l-0.226-0.045l-0.314-0.09l-0.225-0.09l-0.33-0.15
		l-0.226-0.135l-0.21-0.135l-0.195-0.136l-0.285-0.21l-0.164-0.149l-0.226-0.255l-0.135-0.165l-0.21-0.285l-0.105-0.195
		l-0.164-0.285l-0.076-0.21l-0.104-0.345l-0.045-0.21l-0.075-0.33l-0.029-0.225l-0.045-0.256l-0.031-0.239l-0.014-0.391
		l-0.016-0.225l0.016-0.57V76.89l0.029-0.479l0.045-0.24l0.061-0.39l0.06-0.24l0.06-0.33l0.061-0.225l0.09-0.315l0.075-0.225
		l0.09-0.226l0.104-0.225l0.181-0.33l0.149-0.21l0.24-0.27l0.195-0.165l0.21-0.165l0.194-0.136l0.301-0.165l0.195-0.104l0.524-0.226
		l0.405-0.149l0.225-0.075l0.225-0.06l0.24-0.03l0.391-0.015h0.24l0.766,0.029l0.238,0.016l0.361,0.06l0.24,0.03l0.584,0.135
		l0.256,0.075l0.24,0.09l0.225,0.09l0.209,0.105l0.346,0.194l0.195,0.136l0.164,0.165l0.166,0.194l0.24,0.3l0.135,0.21l0.209,0.33
		l0.105,0.21l0.09,0.226l0.09,0.21l0.105,0.345l0.074,0.226l0.061,0.255l0.045,0.239l0.045,0.33l0.031,0.226L162.886,76.651z
		 M156.497,79.771l0.149,0.194l0.166,0.181l0.194,0.119l0.09,0.061l0.24,0.075l0.271,0.045l0.254,0.015h0.271l0.375-0.03l0.24-0.06
		l0.225-0.09l0.209-0.135l0.076-0.075l0.164-0.195l0.135-0.24l0.105-0.225l0.15-0.51l0.045-0.24l0.016-0.36l0.045-0.72v-0.24
		l0.014-0.45l-0.014-0.225l-0.031-0.36l-0.061-0.239l-0.074-0.255l-0.09-0.226l-0.164-0.33l-0.121-0.194l-0.18-0.181l-0.195-0.149
		l-0.209-0.105l-0.105-0.03l-0.225-0.074l-0.227-0.016l-0.104-0.015h-0.24l-0.256,0.045l-0.105,0.015l-0.225,0.075l-0.225,0.12
		l-0.27,0.18l-0.166,0.165l-0.164,0.226l-0.136,0.225l-0.09,0.271l-0.06,0.255l-0.03,0.255l-0.015,0.345v0.225l-0.016,0.45v0.24
		l-0.015,0.48v0.239l0.03,0.375l0.029,0.24l0.061,0.255l0.074,0.21l0.03,0.105l0.104,0.194L156.497,79.771z"/>
	<path fill="#FFFFFF" d="M170.191,82.26v0.255l-0.045,0.195l-0.104,0.09l-0.105,0.075l-0.105,0.045h-0.436l-0.645-0.03h-0.24
		l-2.025-0.029h-0.238l-1.516,0.06l-0.496-0.03l-0.164-0.045l-0.061-0.045l-0.029-0.09l-0.016-0.149v-0.346l0.031-0.45l-0.016-0.239
		l-0.061-0.45V80.85l0.016-0.104l0.061-0.165l0.164-0.03l0.6,0.045h0.24l0.346-0.015l0.18-0.03l0.09-0.045l0.045-0.104v-1.065
		l0.016-0.24l0.059-0.899V77.97l-0.014-0.33l-0.031-0.225l-0.014-0.375l-0.016-0.24l0.029-0.39l0.031-0.51v-0.165l-0.045-0.09
		l-0.09-0.061l-0.135-0.015l-0.541,0.18l-0.225,0.061l-0.225,0.029h-0.195l-0.135-0.06l-0.061-0.105l-0.045-0.149l-0.016-0.12v-0.24
		l0.031-0.375v-0.255l-0.031-0.465v-0.255l0.031-0.195l0.059-0.09l0.076-0.061l0.148-0.074l0.137-0.045l0.225-0.091l0.436-0.135
		l0.209-0.075l0.795-0.3l0.225-0.075l0.795-0.255l0.227-0.09l0.344-0.165l0.256-0.104l0.225-0.061l0.18-0.015l0.15,0.045
		l0.074,0.104l0.045,0.181l0.031,0.18l-0.016,0.18l-0.029,0.585l-0.016,0.24v2.34l-0.045,0.915v0.24l0.061,0.93l-0.016,0.24
		l-0.061,0.915l-0.014,0.24l0.059,0.93l0.016,0.15l0.045,0.09l0.09,0.06l0.18,0.016l1.08,0.015l0.09,0.03l0.061,0.135l0.016,0.105
		l0.014,0.225l-0.029,0.45v0.239L170.191,82.26z"/>
	<path fill="#FFFFFF" d="M179.521,73.081l-0.014,0.24l-0.076,0.24l-0.375,0.704l-0.09,0.21l-0.285,0.75l-0.105,0.211l-0.389,0.704
		l-0.105,0.21l-0.346,0.721l-0.09,0.21l-0.33,0.734l-0.104,0.21l-0.375,0.705l-0.121,0.21l-0.359,0.69l-0.105,0.21l-0.314,0.75
		l-0.09,0.21l-0.346,0.72l-0.105,0.21l-0.389,0.69l-0.105,0.165l-0.09,0.075l-0.18,0.045h-0.121l-0.24,0.015l-1.273-0.03
		l-0.676,0.046h-0.211l-0.09-0.016l-0.18-0.06l-0.105-0.12l-0.014-0.135l0.074-0.165l0.391-0.735l0.119-0.21l0.361-0.765l0.104-0.21
		l0.316-0.78l0.104-0.21l0.391-0.75l0.105-0.21l0.359-0.766l0.105-0.21l0.84-1.71l0.119-0.21l0.375-0.75l0.045-0.194l-0.09-0.12
		l-0.193-0.03l-0.811-0.03h-0.24l-0.811,0.045h-0.24l-0.824-0.015h-0.225l-0.451,0.03h-0.24l-0.135-0.016l-0.209-0.06l-0.135-0.12
		l-0.045-0.18l-0.016-0.21l0.016-0.226l0.059-0.39l0.016-0.24l-0.029-0.45v-0.225l0.014-0.12l0.045-0.21l0.09-0.12l0.182-0.06h0.314
		l0.615,0.075l0.24,0.015l1.154-0.03l0.916-0.045h0.238l0.916,0.045h0.24l0.914-0.015h0.24l0.916,0.015l0.869-0.06h0.27l0.225,0.06
		l0.092,0.12l0.045,0.195l0.045,0.359L179.521,73.081z"/>
</g>
</svg>
