<?xml version="1.0" encoding="utf-8"?>
<!-- Generator: Adobe Illustrator 16.0.0, SVG Export Plug-In . SVG Version: 6.00 Build 0)  -->
<!DOCTYPE svg PUBLIC "-//W3C//DTD SVG 1.1//EN" "http://www.w3.org/Graphics/SVG/1.1/DTD/svg11.dtd">
<svg version="1.1" id="Layer_1" xmlns="http://www.w3.org/2000/svg" xmlns:xlink="http://www.w3.org/1999/xlink" x="0px" y="0px"
	 width="314.8px" height="239.4px" viewBox="0 0 314.8 239.4" enable-background="new 0 0 314.8 239.4" xml:space="preserve">
<g>
	<g>
		<g>
			<path fill="#ED1B34" d="M82.427,167.484c2.571-1.289,4.058-3.843,4.156-6.527l132.933-67.071l27.713-17.193
				c0.312-0.194,0.427-0.595,0.262-0.925c-0.164-0.329-0.554-0.478-0.896-0.344l-30.309,11.891L83.27,154.426
				c-2.203-1.492-5.108-1.812-7.657-0.535c-3.753,1.882-5.271,6.449-3.389,10.203C74.106,167.848,78.673,169.364,82.427,167.484z
				 M85.8,157.258c-0.237-0.469-0.515-0.901-0.829-1.297l132.156-66.684l15.711-6.165L85.8,157.258z M74.435,160.953
				c-0.885-0.924-0.56-2.674,0.725-3.908c1.287-1.233,3.047-1.486,3.935-0.561c0.885,0.924,0.561,2.672-0.725,3.906
				C77.082,161.625,75.321,161.877,74.435,160.953z"/>
			<path fill="#ED1B34" d="M246.758,164.094c1.882-3.754,0.365-8.321-3.389-10.203c-2.549-1.277-5.454-0.957-7.657,0.535
				L102.696,87.315L72.388,75.424c-0.342-0.134-0.732,0.015-0.896,0.344c-0.165,0.33-0.051,0.73,0.262,0.925l27.714,17.193
				l132.932,67.071c0.099,2.685,1.584,5.238,4.156,6.527C240.309,169.364,244.875,167.848,246.758,164.094z M86.144,83.112
				l15.711,6.165l132.156,66.684c-0.313,0.396-0.593,0.828-0.829,1.297L86.144,83.112z M240.613,160.391
				c-1.286-1.234-1.609-2.982-0.725-3.906c0.888-0.926,2.647-0.673,3.935,0.561c1.284,1.234,1.609,2.984,0.725,3.908
				C243.661,161.877,241.9,161.625,240.613,160.391z"/>
		</g>
		<g>
			<path fill="#FFFFFF" d="M160.32,167.332c-19.878,0-37.783-13.303-43.54-32.349c-3.517-11.634-2.292-23.941,3.448-34.655
				s15.309-18.55,26.942-22.066c4.099-1.239,8.297-1.867,12.479-1.867c19.188,0,36.651,13.438,42.465,32.678
				c3.475,11.497,2.535,23.639-2.648,34.192c-5.305,10.799-14.525,18.65-25.965,22.108
				C169.202,166.673,164.766,167.332,160.32,167.332z"/>
			<path fill="#ED1B34" d="M202.595,108.929c-7.134-23.604-31.248-38.496-55.568-31.146c-24.32,7.351-38.076,33.025-30.725,57.345
				c6.009,19.882,24.266,32.704,44.018,32.704c4.407,0,8.89-0.639,13.326-1.979C197.965,158.502,209.729,132.533,202.595,108.929z
				 M199.864,110.563c0.21,0.746-0.021,1.55-0.59,2.075c-0.097,0.09-0.193,0.18-0.29,0.27c-0.503,0.47-1.264,0.541-1.842,0.168
				c-0.497-0.321-0.597-1.017-0.17-1.428c0.514-0.494,1.036-0.979,1.564-1.455C198.983,109.789,199.702,109.983,199.864,110.563z
				 M198.254,105.924c0.275,0.67,0.111,1.45-0.434,1.928c-0.954,0.835-1.871,1.683-2.752,2.541c-0.511,0.498-1.292,0.607-1.91,0.252
				c-0.528-0.304-0.623-1.024-0.195-1.458c1.244-1.26,2.535-2.464,3.87-3.616C197.3,105.168,198.02,105.354,198.254,105.924z
				 M196.202,101.648c0.337,0.617,0.207,1.392-0.331,1.846c-1.769,1.491-3.422,3.025-4.954,4.589
				c-0.508,0.518-1.299,0.63-1.945,0.304c-0.574-0.289-0.642-1.058-0.201-1.525c1.862-1.977,3.842-3.822,5.924-5.551
				C195.178,100.908,195.899,101.095,196.202,101.648z M191.989,97.453c0.525-0.43,1.307-0.338,1.701,0.216
				c0.393,0.553,0.32,1.32-0.203,1.751c-2.523,2.081-4.807,4.253-6.867,6.473c-0.52,0.56-1.338,0.741-2.04,0.438
				c-0.587-0.252-0.726-1.01-0.302-1.488C186.647,102.167,189.227,99.713,191.989,97.453z M190.708,93.968
				c0.454,0.5,0.443,1.282-0.08,1.71c-3.212,2.628-6.035,5.405-8.512,8.245c-0.527,0.605-1.367,0.868-2.123,0.596
				c-0.58-0.208-0.842-0.909-0.451-1.386c2.773-3.387,5.854-6.468,9.229-9.249C189.349,93.407,190.204,93.414,190.708,93.968z
				 M187.265,90.589c0.54,0.468,0.451,1.304-0.099,1.761c-3.998,3.317-7.388,6.859-10.252,10.47
				c-0.26,0.327-0.701,0.446-1.102,0.326c-0.41-0.122-0.768-0.396-0.948-0.785c-0.167-0.362-0.115-0.789,0.127-1.105
				c3.022-3.955,6.456-7.522,10.28-10.716C185.85,90.058,186.696,90.096,187.265,90.589z M183.295,87.52
				c0.57,0.385,0.682,1.2,0.157,1.645c-3.453,2.93-6.442,6.025-9.025,9.185c-0.431,0.527-1.263,0.52-1.583-0.081
				c-0.389-0.727-0.345-1.625,0.176-2.265c2.43-2.991,5.113-5.758,8.039-8.304C181.688,87.153,182.606,87.054,183.295,87.52z
				 M178.835,84.875c0.642,0.328,0.703,1.204,0.165,1.683c-2.655,2.364-5.024,4.822-7.132,7.328
				c-0.436,0.517-1.248,0.464-1.604-0.11c-0.453-0.728-0.404-1.671,0.147-2.327c1.864-2.212,3.882-4.295,6.034-6.264
				C177.094,84.591,178.051,84.474,178.835,84.875z M173.797,82.704c0.706,0.252,0.826,1.174,0.281,1.69
				c-1.777,1.685-3.424,3.408-4.934,5.159c-0.469,0.545-1.324,0.503-1.738-0.085c-0.482-0.685-0.447-1.613,0.097-2.249
				c1.172-1.367,2.402-2.687,3.688-3.962C171.873,82.581,172.893,82.381,173.797,82.704z M168.206,81.13
				c0.735,0.153,0.945,1.075,0.424,1.615c-0.865,0.894-1.695,1.795-2.488,2.705c-0.482,0.554-1.348,0.507-1.806-0.069
				c-0.518-0.65-0.503-1.582,0.046-2.207c0.351-0.4,0.707-0.795,1.068-1.188C166.145,81.231,167.202,80.921,168.206,81.13z
				 M160.126,80.342c0.043-0.049,0.11-0.069,0.176-0.069c0.742,0.008,1.484,0.038,2.224,0.087c0.564,0.038,0.763,0.737,0.389,1.164
				c-0.498,0.569-1.379,0.517-1.883-0.046c-0.283-0.317-0.565-0.628-0.847-0.934C160.131,80.484,160.073,80.402,160.126,80.342z
				 M134.372,88.983c0.287-0.222,0.695-0.103,0.88,0.209c0.204,0.344,0.149,0.795-0.175,1.03c-2.652,1.917-5.063,3.933-7.265,6.011
				c-0.254,0.24-0.603-0.139-0.384-0.412C129.474,93.263,131.804,90.973,134.372,88.983z M119.772,110.796
				c0.64-2.294,1.812-4.402,3.308-6.255c3.595-4.457,7.74-8.426,12.428-11.899c0.619-0.458,1.511-0.309,1.869,0.375
				c0.403,0.771,0.145,1.713-0.546,2.243c-6.968,5.345-12.218,11.387-16.17,17.394c-0.414,0.628-1.461,0.424-1.288-0.308
				C119.496,111.826,119.629,111.311,119.772,110.796z M118.319,123.758c-0.074-1.551,0.316-3.09,1.046-4.46
				c4.701-8.828,10.891-16.201,18.526-22.105c0.565-0.437,1.403-0.3,1.699,0.35c0.327,0.718,0.143,1.574-0.473,2.066
				c-9.34,7.457-15.468,16.195-19.443,24.04c-0.052,0.103-0.103,0.205-0.154,0.307C119.231,124.535,118.35,124.405,118.319,123.758z
				 M119.5,131.785c-0.236-0.949-0.132-1.951,0.255-2.85c0.604-1.402,1.259-2.818,1.98-4.242
				c4.696-9.271,10.839-16.96,18.371-23.074c0.475-0.386,1.169-0.14,1.394,0.429c0.28,0.712,0.055,1.523-0.53,2.016
				c-7.264,6.111-12.483,12.968-16.173,19.299c-1.679,2.881-3.108,5.74-4.328,8.514C120.271,132.325,119.618,132.261,119.5,131.785z
				 M121.392,137.616c-0.242-0.599-0.258-1.272-0.021-1.873c1.424-3.604,3.198-7.403,5.42-11.218
				c4.179-7.171,9.221-13.281,15.084-18.35c0.422-0.364,1.071-0.162,1.246,0.367c0.231,0.696-0.019,1.456-0.567,1.943
				c-5.304,4.719-9.451,9.79-12.636,14.594c-3.322,5.012-5.843,10.005-7.755,14.576C122.02,138.001,121.531,137.963,121.392,137.616
				z M130.97,128.611c-0.587-0.756-0.683-1.803-0.175-2.614c0.412-0.657,1.354-0.634,1.829-0.021
				c3.96,5.104,8.273,9.286,12.689,12.705c0.826,0.64,1.3,1.661,1.147,2.694c-0.112,0.762-0.98,1.16-1.604,0.71
				C139.641,138.319,135.013,133.82,130.97,128.611z M144.355,144.436c0.832,0.586,1.244,1.619,1.006,2.608
				c-0.196,0.814-1.135,1.199-1.833,0.736c-5.703-3.778-10.795-8.418-15.269-13.903c-0.679-0.832-0.833-1.994-0.328-2.943
				c0.381-0.715,1.362-0.867,1.869-0.235C134.35,136.371,139.309,140.871,144.355,144.436z M133.806,123.898
				c-0.508-0.676-0.54-1.609-0.043-2.295c0.405-0.559,1.233-0.555,1.649-0.005c3.262,4.308,6.789,7.973,10.416,11.085
				c0.817,0.701,1.324,1.725,1.255,2.799c-0.047,0.737-0.932,1.053-1.509,0.591C141.169,132.545,137.248,128.48,133.806,123.898z
				 M136.763,119.745c-0.449-0.607-0.466-1.447,0.016-2.028c0.395-0.477,1.131-0.491,1.502,0.005
				c2.392,3.189,4.932,6.033,7.548,8.563c0.808,0.78,1.328,1.831,1.362,2.954c0.02,0.662-0.744,1.065-1.237,0.623
				C142.557,126.815,139.496,123.438,136.763,119.745z M141.286,117.175c-3.158-3.979,1.616-6.3,3.032-2.55
				c0.837,2.216,1.796,3.585,2.152,6.104c0.164,1.158-1.216,1.029-2.007,0.168C143.359,119.694,142.301,118.454,141.286,117.175z
				 M141.883,157.688c-0.318,0.753-1.229,1.022-1.947,0.633c-1.609-0.873-3.163-1.851-4.643-2.934
				c-4.944-3.614-8.946-8.179-11.838-13.44c-0.163-0.297-0.225-0.648-0.107-0.966c0.072-0.195,0.316-0.291,0.453-0.134
				c5.519,6.359,11.462,11.168,17.438,14.785C141.938,156.057,142.202,156.937,141.883,157.688z M125.769,139.698
				c-0.781-0.898-1.025-2.169-0.537-3.255c0.365-0.811,1.447-0.977,2.022-0.299c4.899,5.789,10.193,10.301,15.548,13.809
				c0.872,0.572,1.312,1.642,0.988,2.633c-0.283,0.865-1.302,1.232-2.078,0.754C135.821,149.701,130.506,145.146,125.769,139.698z
				 M144.296,160.379c-0.548-0.224-0.816-0.848-0.586-1.393c6.836-16.192,6.588-31.273,4.337-42.797
				c-2.48-12.701-7.529-22.748-11-28.544c-0.143-0.237-0.05-0.541,0.185-0.687c0.233-0.146,0.545-0.109,0.696,0.12
				c3.646,5.522,8.747,14.655,11.669,26.07c4.142,16.173,2.844,31.747-3.801,46.563
				C145.537,160.292,144.886,160.619,144.296,160.379z M148.603,161.851c-0.622-0.177-0.937-0.864-0.677-1.456
				c8.122-18.465,7.101-35.361,3.91-47.82c-2.983-11.649-8.069-20.865-11.799-26.539c-0.18-0.273-0.147-0.655,0.142-0.81
				c0.304-0.164,0.672-0.035,0.875,0.245c3.891,5.367,9.049,13.771,12.394,24.278c5.567,17.487,4.511,34.64-3.103,51.226
				C150.037,161.645,149.312,162.053,148.603,161.851z M153.397,162.91c-0.691-0.111-1.088-0.846-0.803-1.484
				c9.25-20.74,7.245-39.262,3.025-52.465c-3.394-10.616-8.475-19.025-12.417-24.507c-0.193-0.27-0.095-0.649,0.208-0.784
				c0.342-0.151,0.748-0.059,0.98,0.235c4.061,5.123,9.175,12.742,12.854,22.273c7.169,18.568,6.529,37.203-1.854,55.605
				C155.039,162.556,154.235,163.045,153.397,162.91z M158.833,163.414c-0.804-0.023-1.319-0.858-0.997-1.596
				c10.006-22.908,6.857-42.756,1.562-56.472c-3.635-9.417-8.549-16.942-12.605-22.165c-0.23-0.296-0.147-0.744,0.209-0.862
				c0.434-0.144,0.909,0.007,1.206,0.354c4.129,4.833,9.036,11.613,12.865,20.019c8.786,19.283,8.754,39.164-0.036,59.278
				C160.654,162.848,159.791,163.441,158.833,163.414z M164.833,163.121c-0.866,0.107-1.462-0.805-1.129-1.611
				c10.296-24.922,5.854-45.767-0.528-59.775c-3.709-8.141-8.334-14.746-12.375-19.612c-0.263-0.317-0.139-0.813,0.264-0.901
				c0.531-0.116,1.085,0.066,1.451,0.468c4.045,4.447,8.596,10.334,12.391,17.515c10.326,19.54,11.168,40.285,2.562,61.822
				C167.023,162.143,166.028,162.973,164.833,163.121z M171.577,161.73c-0.899,0.263-1.678-0.645-1.35-1.523
				c9.943-26.6,4.15-48.025-3.278-62.083c-3.552-6.719-7.693-12.295-11.512-16.666c-0.309-0.354-0.16-0.934,0.307-0.982
				c0.673-0.071,1.342,0.182,1.808,0.672c3.718,3.91,7.687,8.772,11.19,14.564c11.712,19.36,13.657,40.541,5.849,63.104
				C174.108,160.212,172.993,161.316,171.577,161.73z M178.217,159.145c-0.27,0.133-0.596,0.123-0.834-0.061
				c-0.229-0.178-0.301-0.49-0.21-0.766c0.086-0.261,0.171-0.521,0.254-0.781c0.197-0.617,0.932-0.898,1.44-0.497
				c0.082,0.065,0.165,0.131,0.248,0.196c0.518,0.413,0.434,1.221-0.154,1.528C178.715,158.894,178.467,159.021,178.217,159.145z
				 M183.304,156.164c-0.661,0.451-1.544,0.393-2.167-0.109c-0.498-0.402-0.998-0.796-1.499-1.18
				c-0.698-0.533-1.015-1.438-0.796-2.288c0.172-0.667,0.965-0.95,1.513-0.532c1.033,0.789,2.05,1.611,3.052,2.467
				C183.926,154.965,183.869,155.779,183.304,156.164z M187.233,153.117c-0.582,0.513-1.456,0.516-2.045,0.01
				c-1.414-1.214-2.838-2.351-4.268-3.409c-0.748-0.554-1.066-1.511-0.891-2.425c0.137-0.715,0.97-1.052,1.557-0.619
				c1.93,1.418,3.809,2.955,5.643,4.601C187.779,151.768,187.788,152.629,187.233,153.117z M190.821,149.553
				c-0.55,0.615-1.496,0.58-2.111,0.033c-2.193-1.949-4.408-3.708-6.635-5.287c-0.849-0.602-1.287-1.633-1.164-2.666
				c0.092-0.759,0.938-1.188,1.564-0.753c2.807,1.946,5.527,4.126,8.162,6.536C191.253,147.98,191.377,148.93,190.821,149.553z
				 M194.065,145.422c-0.458,0.67-1.398,0.789-2,0.244c-3.056-2.768-6.148-5.166-9.246-7.235c-0.943-0.63-1.469-1.727-1.418-2.859
				c0.035-0.808,0.905-1.323,1.584-0.886c3.743,2.413,7.36,5.227,10.85,8.436C194.481,143.714,194.559,144.697,194.065,145.422z
				 M196.904,140.635c-0.39,0.768-1.405,0.922-2.046,0.347c-3.887-3.489-7.812-6.404-11.728-8.819
				c-1.054-0.649-1.687-1.807-1.749-3.043c-0.044-0.857,0.858-1.459,1.6-1.025c4.637,2.716,9.117,6.025,13.441,9.908
				C197.162,138.666,197.354,139.75,196.904,140.635z M199.233,135.088c-0.287,0.851-1.342,1.148-2.019,0.558
				c-4.767-4.163-9.564-7.509-14.315-10.154c-1.186-0.661-1.977-1.861-2.168-3.205c-0.127-0.885,0.748-1.612,1.542-1.202
				c5.526,2.852,10.884,6.497,16.068,10.925C199.228,132.766,199.606,133.982,199.233,135.088z M200.848,128.68
				c-0.16,0.945-1.29,1.344-2.029,0.732c-5.671-4.683-11.338-8.274-16.898-10.978c-1.305-0.634-2.227-1.855-2.574-3.264
				c-0.229-0.925,0.693-1.721,1.566-1.337c6.347,2.79,12.531,6.58,18.547,11.349C200.513,126.018,201.073,127.354,200.848,128.68z
				 M201.417,121.269c0.015,1.054-1.252,1.532-2.092,0.896c-6.471-4.895-12.878-8.477-19.1-11.021
				c-1.449-0.592-2.566-1.796-3.103-3.267c-0.341-0.935,0.583-1.824,1.521-1.491c6.994,2.476,13.859,6.096,20.58,10.86
				C200.537,118.178,201.393,119.658,201.417,121.269z"/>
		</g>
	</g>
</g>
<g>
	<path d="M103.185,65.716l4.273-3.322c3.126-2.43,6.101-1.831,8.923,1.799c0.837,1.077,1.387,2.134,1.649,3.169
		c0.262,1.037,0.15,2.12-0.336,3.25l9.449,6.239l-2.814,2.188l-8.632-5.996l-1.589,1.235l6.157,7.92l-2.657,2.066L103.185,65.716z
		 M112.283,71.935l1.511-1.175c0.469-0.364,0.792-0.72,0.969-1.066c0.176-0.346,0.244-0.698,0.203-1.057
		c-0.042-0.357-0.174-0.735-0.399-1.132c-0.225-0.396-0.52-0.829-0.884-1.298c-0.364-0.469-0.711-0.861-1.04-1.177
		c-0.329-0.315-0.674-0.535-1.035-0.658s-0.736-0.131-1.126-0.023c-0.39,0.108-0.828,0.351-1.314,0.729l-1.381,1.073L112.283,71.935
		z"/>
	<path d="M117.506,55.528l8.97-4.492l1.418,2.833l-5.96,2.985l3.088,6.167l5.193-2.601l1.418,2.833l-5.193,2.601l3.088,6.167
		l5.96-2.985l1.507,3.01l-8.97,4.492L117.506,55.528z"/>
	<path d="M131.829,48.995l4.807-1.313c1.846-0.504,3.398-0.375,4.656,0.388c1.257,0.763,2.138,2.067,2.643,3.914l2.895,10.601
		c0.58,2.123,0.492,3.829-0.262,5.117c-0.754,1.29-2.097,2.198-4.028,2.725l-4.521,1.234L131.829,48.995z M140.432,67.718
		l1.496-0.409c0.913-0.249,1.498-0.654,1.755-1.215c0.258-0.56,0.253-1.329-0.014-2.305l-2.982-10.919
		c-0.244-0.892-0.612-1.531-1.106-1.921c-0.495-0.389-1.219-0.454-2.174-0.193l-1.496,0.409L140.432,67.718z"/>
	<path d="M156.945,44.436l4.914,0.169c1.077,0.037,1.99,0.234,2.737,0.59s1.353,0.817,1.818,1.383
		c0.464,0.566,0.789,1.21,0.974,1.932c0.184,0.722,0.263,1.468,0.237,2.237l-0.03,0.857c-0.022,0.638-0.09,1.175-0.204,1.611
		s-0.276,0.816-0.485,1.139c-0.209,0.323-0.461,0.606-0.756,0.849c-0.294,0.243-0.632,0.468-1.014,0.675
		c0.779,0.401,1.342,0.977,1.69,1.726c0.348,0.75,0.501,1.74,0.459,2.971l-0.045,1.319c-0.071,2.067-0.626,3.633-1.664,4.698
		c-1.039,1.065-2.657,1.559-4.855,1.483l-4.584-0.158L156.945,44.436z M159.616,64.67l1.451,0.05
		c0.681,0.023,1.218-0.057,1.61-0.242c0.391-0.185,0.692-0.449,0.902-0.794c0.21-0.345,0.345-0.758,0.406-1.241
		c0.061-0.482,0.101-1.009,0.121-1.581c0.021-0.594,0.005-1.111-0.045-1.554c-0.051-0.442-0.176-0.815-0.375-1.119
		s-0.482-0.539-0.851-0.706c-0.369-0.167-0.861-0.261-1.476-0.282l-1.484-0.051L159.616,64.67z M159.978,54.183l1.517,0.052
		c1.121,0.039,1.884-0.216,2.288-0.763c0.404-0.547,0.625-1.36,0.662-2.438c0.037-1.055-0.15-1.854-0.561-2.396
		s-1.177-0.833-2.298-0.872l-1.385-0.048L159.978,54.183z"/>
	<path d="M177.784,46.56l2.728,0.651l-0.351,24.072l-3.274-0.781l0.209-5.141l-4.462-1.064l-2.135,4.681l-3.274-0.782L177.784,46.56
		z M177.593,53.469l-0.064-0.016l-3.582,7.898l3.274,0.782L177.593,53.469z"/>
	<path d="M190.661,50.334l4.893,2.312c3.581,1.691,4.389,4.616,2.424,8.773c-0.583,1.233-1.277,2.201-2.083,2.903
		s-1.824,1.091-3.052,1.167l-1.3,11.248l-3.223-1.522l1.452-10.41l-1.82-0.86l-4.286,9.07l-3.043-1.438L190.661,50.334z
		 M189.221,61.26l1.73,0.818c0.537,0.254,1,0.381,1.389,0.382c0.389,0.001,0.733-0.097,1.034-0.296
		c0.3-0.199,0.577-0.488,0.83-0.867c0.252-0.379,0.505-0.838,0.759-1.375c0.253-0.537,0.447-1.023,0.58-1.459
		c0.133-0.436,0.173-0.843,0.121-1.221c-0.053-0.377-0.216-0.716-0.488-1.015c-0.273-0.299-0.688-0.58-1.244-0.843l-1.581-0.747
		L189.221,61.26z"/>
	<path d="M206.429,58.557l2.562,1.973l-4.613,14.317l0.052,0.041l8.639-11.216l2.667,2.054L201.398,84.34l-2.51-1.934l4.541-14.331
		l-0.053-0.041l-8.619,11.189l-2.667-2.054L206.429,58.557z"/>
</g>
<g>
	<path d="M109.03,169.415l7.19-11.889l2.223,2.646l-5.248,7.833l0.041,0.049l8.623-3.814l2.223,2.646l-12.953,5.028l-7.376,6.194
		l-2.099-2.5L109.03,169.415z"/>
	<path d="M126.254,168.37l2.119,1.706l-10.329,20.936l-2.542-2.047l2.324-4.416l-3.464-2.79l-3.819,3.211L108,182.922
		L126.254,168.37z M123.211,174.342l-0.05-0.041l-6.425,5.426l2.542,2.047L123.211,174.342z"/>
	<path d="M132.714,173.348l4.741,2.251c3.469,1.647,4.247,4.485,2.334,8.512c-0.568,1.195-1.243,2.132-2.026,2.811
		c-0.783,0.679-1.771,1.054-2.961,1.126l-1.281,10.904l-3.122-1.482l1.427-10.091l-1.763-0.837l-4.173,8.788l-2.948-1.4
		L132.714,173.348z M131.298,183.94l1.677,0.796c0.52,0.247,0.969,0.372,1.346,0.374s0.711-0.093,1.003-0.285
		c0.292-0.192,0.561-0.472,0.806-0.839c0.245-0.367,0.491-0.812,0.738-1.332s0.436-0.992,0.565-1.414s0.169-0.817,0.119-1.184
		c-0.051-0.366-0.208-0.694-0.471-0.985c-0.264-0.29-0.666-0.563-1.205-0.82l-1.532-0.728L131.298,183.94z"/>
	<path d="M143.765,178.432l3.076,0.612l2.155,14.426l0.063,0.012l2.678-13.464l3.202,0.637l-4.445,22.346l-3.013-0.6l-2.224-14.407
		l-0.063-0.013l-2.672,13.433l-3.201-0.637L143.765,178.432z"/>
	<path d="M173.84,185.566l-3.226,0.496l-0.112-0.728c-0.113-0.738-0.385-1.349-0.816-1.833c-0.431-0.484-1.057-0.664-1.879-0.537
		c-0.443,0.068-0.793,0.208-1.052,0.42c-0.259,0.213-0.447,0.463-0.564,0.75c-0.118,0.289-0.182,0.611-0.191,0.968
		c-0.01,0.358,0.015,0.727,0.073,1.106c0.068,0.443,0.141,0.815,0.22,1.116s0.198,0.552,0.359,0.754
		c0.161,0.202,0.375,0.369,0.644,0.5c0.268,0.132,0.626,0.249,1.074,0.353l2.618,0.602c0.759,0.164,1.389,0.396,1.888,0.697
		c0.5,0.301,0.909,0.681,1.228,1.139c0.318,0.458,0.569,1.003,0.752,1.633c0.183,0.63,0.338,1.356,0.464,2.179
		c0.146,0.949,0.186,1.844,0.121,2.685c-0.065,0.841-0.27,1.584-0.612,2.23c-0.343,0.647-0.848,1.194-1.512,1.641
		c-0.666,0.447-1.515,0.751-2.547,0.91c-0.781,0.12-1.529,0.094-2.246-0.076c-0.717-0.17-1.354-0.456-1.912-0.855
		c-0.558-0.4-1.029-0.905-1.415-1.515s-0.636-1.295-0.752-2.054l-0.185-1.202l3.226-0.496l0.155,1.012
		c0.091,0.591,0.347,1.096,0.768,1.517c0.42,0.421,1.042,0.568,1.865,0.442c0.548-0.084,0.963-0.229,1.244-0.434
		s0.479-0.462,0.594-0.771c0.114-0.309,0.16-0.677,0.138-1.106c-0.023-0.428-0.073-0.896-0.151-1.401
		c-0.09-0.59-0.187-1.072-0.287-1.445c-0.101-0.373-0.237-0.665-0.41-0.876c-0.173-0.21-0.392-0.371-0.657-0.482
		c-0.265-0.11-0.611-0.219-1.038-0.326l-2.455-0.594c-1.479-0.355-2.528-0.966-3.146-1.832c-0.619-0.865-1.037-2.004-1.253-3.417
		c-0.13-0.843-0.137-1.663-0.021-2.458c0.115-0.794,0.357-1.5,0.727-2.119c0.369-0.618,0.877-1.144,1.522-1.578
		c0.646-0.434,1.432-0.722,2.36-0.864c0.801-0.123,1.557-0.088,2.267,0.105c0.709,0.194,1.338,0.496,1.888,0.908
		c0.549,0.412,0.996,0.899,1.341,1.461c0.345,0.562,0.566,1.16,0.664,1.792L173.84,185.566z"/>
	<path d="M173.975,178.731l3.021-1.238l3.702,9.03l3.731-1.529l-3.702-9.031l3.02-1.238l8.642,21.082l-3.02,1.238l-3.848-9.386
		l-3.73,1.529l3.848,9.386l-3.02,1.238L173.975,178.731z"/>
	<path d="M188.306,178.313c-0.54-0.741-0.888-1.491-1.043-2.249s-0.158-1.475-0.005-2.154c0.152-0.678,0.422-1.304,0.811-1.877
		c0.388-0.572,0.849-1.054,1.383-1.443s1.134-0.68,1.798-0.874c0.664-0.193,1.342-0.258,2.035-0.195
		c0.693,0.063,1.375,0.285,2.049,0.666c0.673,0.381,1.28,0.942,1.819,1.684l7.083,9.726c0.553,0.759,0.904,1.513,1.053,2.262
		c0.149,0.749,0.148,1.463-0.005,2.141c-0.152,0.679-0.422,1.304-0.811,1.876c-0.388,0.573-0.849,1.054-1.383,1.443
		c-0.535,0.389-1.134,0.68-1.798,0.874c-0.664,0.194-1.342,0.259-2.035,0.195c-0.693-0.062-1.372-0.28-2.039-0.652
		s-1.276-0.938-1.829-1.697L188.306,178.313z M198.027,186.118c0.465,0.638,0.984,0.98,1.557,1.024
		c0.573,0.044,1.101-0.109,1.584-0.461c0.482-0.352,0.791-0.807,0.925-1.366s-0.032-1.158-0.497-1.796l-7.083-9.726
		c-0.465-0.638-0.984-0.979-1.557-1.023s-1.102,0.109-1.584,0.46c-0.483,0.352-0.791,0.808-0.925,1.367s0.032,1.158,0.497,1.796
		L198.027,186.118z"/>
	<path d="M195.169,166.354l3.184-3.72c0.583-0.681,1.185-1.204,1.807-1.57c0.622-0.366,1.34-0.565,2.155-0.599
		c0.814-0.033,1.595,0.13,2.342,0.488c0.746,0.358,1.639,0.981,2.676,1.869c0.762,0.652,1.375,1.255,1.842,1.809
		c0.467,0.554,0.811,1.178,1.031,1.872c0.276,0.826,0.329,1.658,0.16,2.495c-0.169,0.838-0.649,1.719-1.44,2.643l-1.082,1.264
		l6.759,5.784l-2.123,2.48L195.169,166.354z M205.509,170.907l1.02-1.191c0.43-0.502,0.69-0.954,0.78-1.354
		c0.09-0.4,0.065-0.772-0.075-1.118c-0.14-0.344-0.378-0.682-0.714-1.011c-0.335-0.329-0.722-0.681-1.16-1.056
		c-0.405-0.347-0.801-0.664-1.186-0.952c-0.386-0.288-0.764-0.485-1.136-0.593c-0.372-0.107-0.745-0.097-1.121,0.031
		s-0.772,0.434-1.188,0.92l-1.103,1.289L205.509,170.907z"/>
</g>
<g>
	<path d="M84.11,124.917l-0.015,0.24l-0.06,0.81l-0.015,0.15l-0.06,0.105l-0.075,0.06l-1.965,0.06h-0.24l-0.795-0.06l-0.24,0.015
		l-0.78,0.06l-0.24,0.015H78.59l-0.78-0.06h-0.24l-1.29,0.075l-0.51-0.03l-0.18-0.03l-0.105-0.075l-0.045-0.105l-0.03-0.165
		l-0.03-0.345l-0.015-0.24l0.015-0.225v-0.225l0.06-0.795v-0.24l0.015-0.795l-0.015-0.24l-0.045-0.795l-0.015-0.24l0.03-0.81v-1.275
		l0.06-0.795l-0.015-0.24l-0.045-0.795l-0.015-0.24v-0.36l0.03-0.45v-0.225l0.045-0.78l0.015-0.21l0.045-0.12l0.075-0.06l0.12-0.015
		l0.195-0.03l0.975,0.06l0.915-0.015h0.24l0.9,0.06h0.24l0.9-0.06h0.24l2.04,0.03l0.255-0.015l0.51-0.045h0.375l0.21,0.045
		l0.09,0.075l0.03,0.105l0.03,0.195v0.405l-0.03,0.375v0.255l0.015,0.375l0.015,0.225l-0.015,0.225l-0.03,0.18l-0.06,0.105
		l-0.075,0.06l-0.18,0.03h-0.12l-0.24,0.015l-1.41-0.03H81.5l-0.765,0.03h-0.24l-0.78-0.03l-0.675-0.045h-0.225l-0.12,0.015
		l-0.15,0.03l-0.075,0.075l-0.015,0.09l-0.03,0.165l-0.03,0.36v0.24l0.015,0.255l0.015,0.165l0.03,0.105l0.06,0.075l0.165,0.045
		l0.48,0.03l0.48-0.03h1.425l1.68-0.09l0.465,0.03l0.165,0.03l0.09,0.075l0.045,0.09l0.015,0.165l0.03,0.255l0.015,0.255v0.495
		l0.03,0.345l-0.03,0.45l-0.03,0.18l-0.06,0.105l-0.105,0.075l-0.15,0.03h-0.3l-0.675-0.075l-0.24-0.015l-1.2,0.075l-0.96-0.03
		h-0.24l-0.6-0.045l-0.255,0.015l-0.18,0.015l-0.075,0.045l-0.045,0.105l-0.015,0.225l-0.045,0.375l-0.015,0.24v0.33l0.015,0.15
		l0.045,0.105l0.06,0.06l0.165,0.015l0.825,0.03h0.24l0.81-0.06l1.065,0.06h0.24l1.065-0.06h0.225l0.225,0.015l0.54,0.06l0.09,0.045
		l0.06,0.09l0.015,0.165L84.11,124.917z"/>
	<path d="M95.3,122.968l-0.015,0.255l-0.03,0.255l-0.045,0.24l-0.075,0.33l-0.075,0.21l-0.135,0.3l-0.105,0.195l-0.18,0.27
		l-0.15,0.18l-0.18,0.18l-0.18,0.165l-0.3,0.195l-0.195,0.135l-0.225,0.12l-0.21,0.105l-0.345,0.12l-0.45,0.15l-0.24,0.045
		l-0.375,0.06l-0.225,0.03l-0.33,0.03l-0.21,0.015l-0.345,0.015l-0.72,0.045h-0.33l-0.21-0.015l-0.345-0.03l-0.225-0.03
		l-0.255-0.045l-0.225-0.075l-0.33-0.105l-0.21-0.105l-0.225-0.105l-0.21-0.105l-0.195-0.12l-0.48-0.33l-0.18-0.15l-0.27-0.21
		l-0.18-0.15l-0.165-0.165l-0.12-0.135l-0.015-0.105l0.075-0.135l0.06-0.075l0.15-0.165l0.42-0.39l0.135-0.165l0.255-0.39
		l0.135-0.165l0.15-0.165l0.165-0.09l0.165,0.03l0.165,0.12l0.48,0.33l0.225,0.12l0.21,0.105l0.345,0.165l0.225,0.075l0.24,0.075
		l0.24,0.045l0.345,0.015l0.24,0.015l0.945-0.06l0.24-0.03l0.12-0.03l0.225-0.09l0.195-0.12l0.15-0.15l0.075-0.105l0.09-0.225
		l-0.015-0.255l-0.03-0.12l-0.12-0.21l-0.075-0.09l-0.195-0.15l-0.12-0.045l-0.225-0.09l-0.255-0.06l-0.255-0.045l-1.425-0.135
		l-0.45-0.09l-0.24-0.06l-0.33-0.12l-0.225-0.075l-0.225-0.105l-0.51-0.255l-0.195-0.135l-0.225-0.135l-0.195-0.135l-0.255-0.21
		l-0.135-0.195l-0.135-0.225l-0.09-0.225l-0.105-0.315l-0.045-0.225l-0.045-0.33l-0.03-0.48l0.015-0.24l0.03-0.36l0.045-0.225
		l0.06-0.195l0.075-0.225l0.15-0.33l0.105-0.21l0.12-0.18l0.15-0.165l0.24-0.225l0.195-0.15l0.195-0.135l0.21-0.105l0.285-0.165
		l0.45-0.18l0.225-0.075l0.345-0.06l0.24-0.045l0.45-0.06l0.33-0.06l0.24-0.03l0.225-0.015h0.24l0.45,0.045l0.225,0.03l0.105,0.03
		l0.24,0.03l0.51,0.09l0.255,0.06l0.24,0.075l0.255,0.075l0.24,0.09l0.225,0.105l0.225,0.09l0.285,0.165l0.21,0.105l0.195,0.135
		l0.135,0.135v0.15l-0.09,0.165l-0.165,0.3l-0.12,0.18l-0.57,0.75l-0.165,0.21l-0.18,0.15l-0.12,0.045l-0.105-0.015l-0.15-0.075
		l-0.225-0.135l-0.225-0.09l-0.105-0.045l-0.225-0.075l-0.12-0.03l-0.255-0.06l-0.345-0.075l-0.24-0.015l-0.39-0.03h-0.39
		l-0.255,0.015l-0.255,0.045l-0.24,0.075l-0.09,0.045l-0.18,0.135l-0.075,0.09l-0.105,0.21l-0.03,0.24l0.045,0.195l0.12,0.195
		l0.165,0.15l0.18,0.09l0.105,0.045l0.225,0.045l0.375,0.045l0.51,0.03l0.255,0.045l0.51,0.12l0.48,0.15l0.345,0.075l0.225,0.06
		l0.42,0.15l0.3,0.135l0.21,0.105l0.21,0.12l0.195,0.12l0.435,0.36l0.165,0.18l0.15,0.18l0.18,0.27l0.12,0.195l0.105,0.225
		l0.06,0.225l0.06,0.33l0.03,0.225L95.3,122.968z"/>
	<path d="M105.35,116.683l-0.015,0.225l0.015,0.45l-0.015,0.24l-0.015,0.12l-0.03,0.18l-0.045,0.105l-0.09,0.075l-0.18,0.03h-0.24
		l-0.45-0.045l-0.24-0.015l-0.69,0.045h-0.24l-0.375-0.03h-0.225l-0.105,0.015l-0.15,0.045l-0.06,0.09l-0.015,0.195l-0.06,0.885
		v0.24l0.06,0.9l-0.015,0.24l-0.06,0.9l-0.015,0.24l0.03,0.885v1.38l-0.03,0.885l0.015,0.225l0.075,0.675l0.015,0.24l-0.045,0.18
		l-0.075,0.075l-0.195,0.03l-0.285-0.015l-0.375-0.045l-0.255-0.015l-0.675,0.045h-0.24l-0.675-0.045l-0.18-0.015l-0.09-0.045
		l-0.03-0.165v-0.255l0.045-0.63l0.015-0.24v-1.125l0.015-0.9v-0.24l0.015-0.885v-0.24l-0.06-0.9l-0.015-0.24v-1.14l-0.03-0.885
		v-0.21l-0.045-0.12l-0.15-0.03h-0.225l-0.48,0.03h-0.27l-0.405-0.03l-0.255-0.015l-0.255,0.015l-0.345,0.015H96.41l-0.12-0.015
		l-0.165-0.03l-0.09-0.06l-0.06-0.09l-0.03-0.15v-0.105l-0.015-0.24l0.03-0.45v-0.225l-0.045-0.57l0.015-0.24l0.045-0.195
		l0.06-0.105l0.09-0.045l0.15-0.03h0.345l0.555,0.045h0.24l0.87-0.06h0.24l0.885,0.075h0.24l1.11-0.075l0.87,0.015h0.24l1.125-0.015
		h1.11l0.495-0.03l0.255,0.015l0.12,0.015l0.18,0.03l0.105,0.06l0.075,0.105l0.03,0.18v0.105l0.015,0.225L105.35,116.683z"/>
</g>
<g>
	<path d="M216.025,123.688l0.015,0.075l0.15,0.03l0.21,0.015l0.57-0.015h1.215l0.765,0.015h0.24l1.755-0.03l0.24-0.015l0.495-0.045
		h0.255l0.195,0.045l0.09,0.135l0.03,0.21l0.015,0.225l0.015,0.24v0.615l0.03,0.375l-0.015,0.24l-0.015,0.21l-0.03,0.15l-0.06,0.09
		l-0.09,0.045l-0.48,0.075l-0.21,0.015l-0.33-0.015l-0.225-0.015l-1.095-0.06h-0.84l-1.32,0.075h-2.175l-1.095-0.015l-0.84-0.03
		l-0.18-0.015l-0.105-0.06l-0.03-0.09l-0.015-0.165l0.03-0.9v-0.24l-0.045-0.915l0.015-0.24l0.045-0.45l0.09-0.45l0.045-0.24
		l0.075-0.255l0.075-0.24l0.045-0.12l0.105-0.24l0.12-0.195l0.255-0.27l0.165-0.15l0.27-0.21l0.18-0.12l0.3-0.195l0.195-0.105
		l0.315-0.15l0.225-0.075l0.375-0.12l0.255-0.06l0.255-0.045l0.24-0.03l0.765-0.045l0.135-0.015l0.27-0.015l0.375-0.015l0.27-0.06
		l0.12-0.06l0.225-0.135l0.105-0.105l0.135-0.195l0.09-0.315v-0.33l-0.03-0.12l-0.075-0.24l-0.06-0.105l-0.15-0.18l-0.195-0.09
		l-0.33-0.09l-0.21-0.03l-0.225-0.015h-0.225l-0.21,0.015l-0.21,0.045l-0.315,0.105l-0.195,0.105l-0.09,0.06l-0.15,0.165
		l-0.075,0.09l-0.105,0.225l-0.075,0.21l-0.135,0.09l-0.225,0.06h-0.135l-0.255,0.015l-0.63-0.03h-0.63l-0.255-0.015l-0.39-0.045
		l-0.195-0.03l-0.105-0.06l-0.045-0.075v-0.255l0.03-0.225l0.03-0.135l0.045-0.24l0.03-0.105l0.075-0.225l0.15-0.285l0.12-0.21
		l0.135-0.195l0.165-0.195l0.18-0.165l0.18-0.15l0.285-0.195l0.21-0.12l0.45-0.24l0.255-0.105l0.24-0.075l0.33-0.075l0.24-0.045
		l0.225-0.045l0.21-0.03l0.33-0.015l0.24-0.015h0.495l0.345-0.015h0.24l0.225,0.015l0.225,0.045l0.315,0.075l0.225,0.075l0.48,0.15
		l0.225,0.075l0.225,0.09l0.315,0.15l0.21,0.12l0.195,0.165l0.195,0.195l0.165,0.195l0.15,0.195l0.195,0.27l0.105,0.21l0.105,0.225
		l0.075,0.225l0.075,0.21l0.045,0.225l0.045,0.36v0.225l-0.015,0.33l-0.03,0.21l-0.075,0.345l-0.06,0.225l-0.09,0.255l-0.105,0.225
		l-0.165,0.285l-0.135,0.195l-0.195,0.255l-0.165,0.165l-0.24,0.225l-0.195,0.12l-0.315,0.165l-0.225,0.09l-0.255,0.075l-0.24,0.075
		l-0.255,0.045l-0.24,0.045l-0.345,0.03l-0.24,0.03l-0.255,0.045l-0.24,0.045l-0.36,0.03l-0.255,0.015h-0.12l-0.27,0.015h-0.12
		l-0.255,0.045l-0.12,0.045l-0.225,0.105l-0.09,0.075l-0.165,0.165l-0.12,0.18l-0.09,0.21l-0.03,0.12l-0.045,0.195L216.025,123.688z
		"/>
	<path d="M233.695,120.103l0.015,0.24l-0.015,0.51v0.885l-0.015,0.33l-0.015,0.225l-0.015,0.33l-0.045,0.225l-0.06,0.345l-0.15,0.48
		l-0.105,0.225l-0.15,0.3l-0.135,0.21l-0.15,0.225l-0.15,0.21l-0.165,0.21l-0.18,0.18l-0.24,0.255l-0.18,0.135l-0.3,0.15
		l-0.195,0.105l-0.3,0.135l-0.21,0.09l-0.315,0.12l-0.21,0.075l-0.33,0.075l-0.225,0.045l-0.255,0.03l-0.255,0.015l-0.36,0.03
		l-0.24-0.015l-0.39-0.03l-0.24-0.03l-0.81-0.135l-0.225-0.045l-0.315-0.09l-0.225-0.09l-0.33-0.15l-0.225-0.135l-0.21-0.135
		l-0.195-0.135l-0.285-0.21l-0.165-0.15l-0.225-0.255l-0.135-0.165l-0.21-0.285l-0.105-0.195l-0.165-0.285l-0.075-0.21l-0.105-0.345
		l-0.045-0.21l-0.075-0.33l-0.03-0.225l-0.045-0.255l-0.03-0.24l-0.015-0.39l-0.015-0.225l0.015-0.57v-0.615l0.03-0.48l0.045-0.24
		l0.06-0.39l0.06-0.24l0.06-0.33l0.06-0.225l0.09-0.315l0.075-0.225l0.09-0.225l0.105-0.225l0.18-0.33l0.15-0.21l0.24-0.27
		l0.195-0.165l0.21-0.165l0.195-0.135l0.3-0.165l0.195-0.105l0.525-0.225l0.405-0.15l0.225-0.075l0.225-0.06l0.24-0.03l0.39-0.015
		h0.24l0.765,0.03l0.24,0.015l0.36,0.06l0.24,0.03l0.585,0.135l0.255,0.075l0.24,0.09l0.225,0.09l0.21,0.105l0.345,0.195
		l0.195,0.135l0.165,0.165l0.165,0.195l0.24,0.3l0.135,0.21l0.21,0.33l0.105,0.21l0.09,0.225l0.09,0.21l0.105,0.345l0.075,0.225
		l0.06,0.255l0.045,0.24l0.045,0.33l0.03,0.225L233.695,120.103z M227.305,123.223l0.15,0.195l0.165,0.18l0.195,0.12l0.09,0.06
		l0.24,0.075l0.27,0.045l0.255,0.015h0.27l0.375-0.03l0.24-0.06l0.225-0.09l0.21-0.135l0.075-0.075l0.165-0.195l0.135-0.24
		l0.105-0.225l0.15-0.51l0.045-0.24l0.015-0.36l0.045-0.72v-0.24l0.015-0.45l-0.015-0.225l-0.03-0.36l-0.06-0.24l-0.075-0.255
		l-0.09-0.225l-0.165-0.33l-0.12-0.195l-0.18-0.18l-0.195-0.15l-0.21-0.105l-0.105-0.03l-0.225-0.075l-0.225-0.015l-0.105-0.015
		h-0.24l-0.255,0.045l-0.105,0.015l-0.225,0.075l-0.225,0.12l-0.27,0.18l-0.165,0.165l-0.165,0.225l-0.135,0.225l-0.09,0.27
		l-0.06,0.255l-0.03,0.255l-0.015,0.345v0.225l-0.015,0.45v0.24l-0.015,0.48v0.24l0.03,0.375l0.03,0.24l0.06,0.255l0.075,0.21
		l0.03,0.105l0.105,0.195L227.305,123.223z"/>
	<path d="M241,125.713v0.255l-0.045,0.195l-0.105,0.09l-0.105,0.075l-0.105,0.045h-0.435l-0.645-0.03h-0.24l-2.025-0.03h-0.24
		l-1.515,0.06l-0.495-0.03l-0.165-0.045l-0.06-0.045l-0.03-0.09l-0.015-0.15v-0.345l0.03-0.45l-0.015-0.24l-0.06-0.45v-0.225
		l0.015-0.105l0.06-0.165l0.165-0.03l0.6,0.045h0.24l0.345-0.015l0.18-0.03l0.09-0.045l0.045-0.105v-1.065l0.015-0.24l0.06-0.9
		v-0.225l-0.015-0.33l-0.03-0.225l-0.015-0.375l-0.015-0.24l0.03-0.39l0.03-0.51v-0.165l-0.045-0.09l-0.09-0.06l-0.135-0.015
		l-0.54,0.18l-0.225,0.06l-0.225,0.03h-0.195l-0.135-0.06l-0.06-0.105l-0.045-0.15l-0.015-0.12v-0.24l0.03-0.375v-0.255l-0.03-0.465
		v-0.255l0.03-0.195l0.06-0.09l0.075-0.06l0.15-0.075l0.135-0.045l0.225-0.09l0.435-0.135l0.21-0.075l0.795-0.3l0.225-0.075
		l0.795-0.255l0.225-0.09l0.345-0.165l0.255-0.105l0.225-0.06l0.18-0.015l0.15,0.045l0.075,0.105l0.045,0.18l0.03,0.18l-0.015,0.18
		l-0.03,0.585l-0.015,0.24v2.34l-0.045,0.915v0.24l0.06,0.93l-0.015,0.24l-0.06,0.915l-0.015,0.24l0.06,0.93l0.015,0.15l0.045,0.09
		l0.09,0.06l0.18,0.015l1.08,0.015l0.09,0.03l0.06,0.135l0.015,0.105l0.015,0.225l-0.03,0.45v0.24L241,125.713z"/>
	<path d="M250.33,116.533l-0.015,0.24l-0.075,0.24l-0.375,0.705l-0.09,0.21l-0.285,0.75l-0.105,0.21l-0.39,0.705l-0.105,0.21
		l-0.345,0.72l-0.09,0.21l-0.33,0.735l-0.105,0.21l-0.375,0.705l-0.12,0.21l-0.36,0.69l-0.105,0.21l-0.315,0.75l-0.09,0.21
		l-0.345,0.72l-0.105,0.21l-0.39,0.69l-0.105,0.165l-0.09,0.075l-0.18,0.045h-0.12l-0.24,0.015l-1.275-0.03l-0.675,0.045h-0.21
		l-0.09-0.015l-0.18-0.06l-0.105-0.12l-0.015-0.135l0.075-0.165l0.39-0.735l0.12-0.21l0.36-0.765l0.105-0.21l0.315-0.78l0.105-0.21
		l0.39-0.75l0.105-0.21l0.36-0.765l0.105-0.21l0.84-1.71l0.12-0.21l0.375-0.75l0.045-0.195l-0.09-0.12l-0.195-0.03l-0.81-0.03h-0.24
		l-0.81,0.045h-0.24l-0.825-0.015h-0.225l-0.45,0.03h-0.24l-0.135-0.015l-0.21-0.06l-0.135-0.12l-0.045-0.18l-0.015-0.21
		l0.015-0.225l0.06-0.39l0.015-0.24l-0.03-0.45v-0.225l0.015-0.12l0.045-0.21l0.09-0.12l0.18-0.06h0.315l0.615,0.075l0.24,0.015
		l1.155-0.03l0.915-0.045h0.24l0.915,0.045h0.24l0.915-0.015h0.24l0.915,0.015l0.87-0.06h0.27l0.225,0.06l0.09,0.12l0.045,0.195
		l0.045,0.36L250.33,116.533z"/>
</g>
</svg>
