<?xml version="1.0" encoding="utf-8"?>
<!-- Generator: Adobe Illustrator 16.0.0, SVG Export Plug-In . SVG Version: 6.00 Build 0)  -->
<!DOCTYPE svg PUBLIC "-//W3C//DTD SVG 1.1//EN" "http://www.w3.org/Graphics/SVG/1.1/DTD/svg11.dtd">
<svg version="1.1" id="Layer_1" xmlns="http://www.w3.org/2000/svg" xmlns:xlink="http://www.w3.org/1999/xlink" x="0px" y="0px"
	 width="314.8px" height="220.053px" viewBox="0 0 314.8 220.053" enable-background="new 0 0 314.8 220.053" xml:space="preserve">
<g>
	<g>
		<g>
			<path fill="#ED1B34" d="M101.037,114.441c1.843-0.924,2.909-2.755,2.979-4.679l95.282-48.076l19.865-12.323
				c0.223-0.139,0.305-0.426,0.188-0.663c-0.117-0.236-0.396-0.343-0.643-0.247l-21.725,8.524l-95.343,48.104
				c-1.579-1.069-3.661-1.299-5.488-0.384c-2.69,1.35-3.778,4.623-2.429,7.313C95.073,114.701,98.346,115.787,101.037,114.441z
				 M103.455,107.11c-0.17-0.336-0.369-0.645-0.594-0.929l94.725-47.798l11.262-4.419L103.455,107.11z M95.309,109.759
				c-0.635-0.662-0.401-1.917,0.52-2.801c0.922-0.883,2.184-1.065,2.821-0.402c0.634,0.662,0.402,1.915-0.52,2.8
				C97.206,110.24,95.943,110.421,95.309,109.759z"/>
			<path fill="#ED1B34" d="M218.826,112.01c1.35-2.69,0.262-5.964-2.43-7.313c-1.826-0.916-3.908-0.686-5.488,0.384l-95.342-48.104
				l-21.724-8.524c-0.245-0.096-0.525,0.011-0.642,0.247c-0.118,0.237-0.037,0.523,0.188,0.663l19.865,12.323l95.283,48.076
				c0.07,1.925,1.135,3.754,2.979,4.679C214.203,115.787,217.476,114.701,218.826,112.01z M103.701,53.964l11.261,4.419
				l94.727,47.798c-0.225,0.284-0.426,0.593-0.594,0.929L103.701,53.964z M214.421,109.356c-0.922-0.885-1.154-2.138-0.52-2.8
				c0.637-0.664,1.896-0.481,2.82,0.402c0.92,0.885,1.152,2.139,0.52,2.801C216.607,110.421,215.343,110.24,214.421,109.356z"/>
		</g>
		<g>
			<path fill="#FFFFFF" d="M156.869,114.331c-14.249,0-27.082-9.535-31.209-23.187c-2.521-8.339-1.643-17.161,2.472-24.84
				s10.973-13.296,19.312-15.816c2.938-0.889,5.947-1.338,8.945-1.338c13.754,0,26.271,9.631,30.438,23.422
				c2.49,8.241,1.816,16.944-1.898,24.509c-3.801,7.741-10.41,13.367-18.609,15.846
				C163.236,113.858,160.056,114.331,156.869,114.331z"/>
			<path fill="#ED1B34" d="M187.171,72.469c-5.115-16.919-22.398-27.593-39.831-22.325c-17.432,5.269-27.292,23.672-22.023,41.104
				c4.307,14.251,17.394,23.442,31.551,23.442c3.158,0,6.373-0.458,9.552-1.418C183.851,108.002,192.285,89.388,187.171,72.469z
				 M185.212,73.64c0.15,0.535-0.014,1.111-0.422,1.487c-0.07,0.064-0.139,0.129-0.209,0.193c-0.359,0.337-0.904,0.388-1.32,0.121
				c-0.355-0.23-0.428-0.729-0.121-1.023c0.369-0.354,0.742-0.702,1.121-1.043C184.582,73.085,185.097,73.225,185.212,73.64z
				 M184.058,70.315c0.197,0.48,0.08,1.04-0.311,1.383c-0.684,0.598-1.34,1.206-1.973,1.821c-0.365,0.357-0.926,0.435-1.369,0.18
				c-0.377-0.218-0.445-0.734-0.139-1.045c0.891-0.904,1.816-1.766,2.773-2.592C183.375,69.773,183.892,69.906,184.058,70.315z
				 M182.589,67.25c0.24,0.442,0.148,0.998-0.238,1.323c-1.268,1.069-2.453,2.168-3.551,3.289c-0.363,0.372-0.932,0.451-1.395,0.218
				c-0.412-0.207-0.461-0.759-0.145-1.093c1.334-1.417,2.754-2.74,4.246-3.979C181.855,66.719,182.371,66.853,182.589,67.25z
				 M179.568,64.243c0.377-0.308,0.938-0.242,1.221,0.154c0.281,0.397,0.229,0.946-0.146,1.255c-1.809,1.492-3.445,3.048-4.922,4.64
				c-0.373,0.401-0.959,0.53-1.463,0.313c-0.42-0.181-0.52-0.724-0.217-1.067C175.74,67.622,177.589,65.863,179.568,64.243z
				 M178.65,61.745c0.326,0.358,0.318,0.919-0.057,1.226c-2.303,1.884-4.326,3.875-6.102,5.91c-0.377,0.434-0.979,0.622-1.521,0.428
				c-0.416-0.149-0.604-0.652-0.322-0.994c1.986-2.427,4.195-4.636,6.613-6.629C177.677,61.343,178.289,61.348,178.65,61.745z
				 M176.183,59.323c0.387,0.336,0.322,0.935-0.072,1.263c-2.865,2.377-5.295,4.916-7.348,7.504
				c-0.188,0.235-0.504,0.32-0.789,0.234c-0.295-0.087-0.551-0.284-0.68-0.562c-0.121-0.26-0.082-0.566,0.09-0.792
				c2.166-2.835,4.627-5.392,7.369-7.681C175.167,58.943,175.775,58.97,176.183,59.323z M173.337,57.124
				c0.408,0.276,0.488,0.859,0.113,1.179c-2.477,2.1-4.619,4.319-6.471,6.584c-0.309,0.377-0.904,0.373-1.135-0.058
				c-0.279-0.521-0.246-1.165,0.127-1.624c1.742-2.143,3.664-4.127,5.762-5.952C172.185,56.861,172.843,56.79,173.337,57.124z
				 M170.14,55.227c0.461,0.235,0.504,0.863,0.117,1.207c-1.902,1.694-3.6,3.456-5.111,5.252c-0.312,0.371-0.895,0.333-1.148-0.079
				c-0.326-0.522-0.291-1.198,0.105-1.668c1.334-1.585,2.781-3.079,4.324-4.49C168.892,55.024,169.578,54.941,170.14,55.227z
				 M166.529,53.671c0.506,0.181,0.592,0.842,0.201,1.212c-1.273,1.208-2.453,2.442-3.537,3.697
				c-0.336,0.391-0.949,0.361-1.246-0.061c-0.346-0.491-0.32-1.156,0.07-1.612c0.84-0.979,1.723-1.926,2.645-2.84
				C165.15,53.583,165.88,53.44,166.529,53.671z M162.521,52.543c0.527,0.11,0.678,0.771,0.305,1.158
				c-0.621,0.641-1.215,1.287-1.783,1.939c-0.346,0.396-0.967,0.363-1.295-0.05c-0.371-0.465-0.359-1.134,0.033-1.582
				c0.252-0.286,0.506-0.57,0.766-0.851C161.044,52.616,161.802,52.393,162.521,52.543z M156.73,51.978
				c0.031-0.035,0.078-0.049,0.126-0.049c0.532,0.006,1.063,0.027,1.594,0.062c0.402,0.027,0.547,0.528,0.279,0.834
				c-0.357,0.407-0.989,0.37-1.35-0.033c-0.203-0.228-0.405-0.45-0.607-0.67C156.732,52.08,156.692,52.022,156.73,51.978z
				 M138.27,58.172c0.206-0.16,0.498-0.074,0.631,0.15c0.146,0.247,0.106,0.57-0.125,0.738c-1.901,1.375-3.629,2.819-5.208,4.309
				c-0.182,0.172-0.432-0.1-0.275-0.295C134.759,61.24,136.43,59.599,138.27,58.172z M127.805,73.807
				c0.459-1.644,1.299-3.155,2.371-4.483c2.577-3.194,5.548-6.039,8.908-8.528c0.443-0.329,1.083-0.222,1.339,0.269
				c0.289,0.552,0.104,1.228-0.391,1.607c-4.995,3.832-8.758,8.162-11.59,12.468c-0.297,0.45-1.047,0.304-0.923-0.22
				C127.607,74.546,127.703,74.177,127.805,73.807z M126.764,83.098c-0.053-1.112,0.226-2.215,0.75-3.197
				c3.369-6.328,7.806-11.612,13.279-15.844c0.405-0.313,1.005-0.215,1.218,0.25c0.234,0.515,0.103,1.128-0.339,1.481
				c-6.695,5.345-11.087,11.608-13.937,17.231c-0.037,0.073-0.074,0.147-0.11,0.22C127.417,83.655,126.786,83.562,126.764,83.098z
				 M127.61,88.852c-0.169-0.681-0.095-1.399,0.183-2.042c0.433-1.005,0.902-2.021,1.419-3.041
				c3.366-6.646,7.77-12.156,13.168-16.539c0.341-0.276,0.838-0.1,1,0.307c0.2,0.511,0.04,1.092-0.38,1.446
				c-5.207,4.379-8.948,9.295-11.593,13.833c-1.203,2.065-2.228,4.114-3.102,6.102C128.163,89.239,127.695,89.193,127.61,88.852z
				 M128.966,93.031c-0.173-0.429-0.185-0.912-0.015-1.343c1.021-2.583,2.292-5.307,3.885-8.041
				c2.995-5.14,6.609-9.52,10.812-13.153c0.303-0.261,0.768-0.116,0.894,0.263c0.165,0.499-0.014,1.043-0.407,1.393
				c-3.802,3.382-6.774,7.018-9.057,10.461c-2.381,3.592-4.188,7.171-5.559,10.448C129.417,93.307,129.066,93.28,128.966,93.031z
				 M135.832,86.577c-0.421-0.542-0.489-1.292-0.125-1.874c0.295-0.471,0.971-0.454,1.311-0.015c2.838,3.658,5.93,6.655,9.095,9.107
				c0.592,0.458,0.932,1.19,0.822,1.93c-0.08,0.546-0.703,0.832-1.15,0.509C142.047,93.535,138.729,90.31,135.832,86.577z
				 M145.426,97.92c0.596,0.42,0.892,1.161,0.721,1.869c-0.14,0.584-0.813,0.86-1.313,0.528c-4.088-2.708-7.738-6.033-10.945-9.965
				c-0.486-0.596-0.597-1.429-0.235-2.109c0.273-0.513,0.976-0.622,1.339-0.168C138.254,92.139,141.809,95.365,145.426,97.92z
				 M137.865,83.198c-0.365-0.484-0.387-1.153-0.031-1.645c0.291-0.401,0.884-0.398,1.182-0.003
				c2.338,3.088,4.866,5.715,7.466,7.946c0.585,0.501,0.949,1.236,0.9,2.006c-0.034,0.528-0.668,0.755-1.082,0.423
				C143.142,89.396,140.332,86.483,137.865,83.198z M139.984,80.221c-0.322-0.435-0.334-1.037,0.011-1.454
				c0.283-0.342,0.811-0.352,1.077,0.004c1.714,2.286,3.535,4.324,5.41,6.138c0.579,0.559,0.952,1.312,0.976,2.117
				c0.014,0.475-0.533,0.764-0.887,0.447C144.137,85.289,141.943,82.869,139.984,80.221z M143.226,78.379
				c-2.264-2.852,1.158-4.516,2.173-1.828c0.6,1.588,1.288,2.57,1.543,4.375c0.117,0.831-0.872,0.737-1.439,0.121
				C144.712,80.185,143.953,79.296,143.226,78.379z M143.654,107.418c-0.228,0.541-0.881,0.732-1.396,0.454
				c-1.153-0.625-2.267-1.327-3.328-2.103c-3.543-2.59-6.412-5.863-8.485-9.634c-0.117-0.212-0.161-0.465-0.076-0.692
				c0.051-0.14,0.226-0.209,0.324-0.096c3.956,4.557,8.216,8.005,12.499,10.597C143.693,106.249,143.882,106.881,143.654,107.418z
				 M132.104,94.524c-0.56-0.644-0.734-1.555-0.385-2.333c0.262-0.582,1.037-0.701,1.449-0.214
				c3.511,4.149,7.306,7.384,11.145,9.898c0.625,0.41,0.94,1.176,0.708,1.887c-0.203,0.62-0.934,0.883-1.49,0.541
				C139.309,101.694,135.499,98.429,132.104,94.524z M145.383,109.347c-0.393-0.161-0.585-0.607-0.42-0.998
				c4.9-11.607,4.722-22.417,3.108-30.676c-1.777-9.104-5.396-16.306-7.884-20.46c-0.103-0.17-0.036-0.388,0.132-0.493
				c0.167-0.104,0.391-0.078,0.5,0.086c2.613,3.958,6.269,10.505,8.364,18.687c2.969,11.592,2.039,22.755-2.725,33.375
				C146.273,109.284,145.807,109.52,145.383,109.347z M148.471,110.403c-0.446-0.127-0.672-0.62-0.485-1.044
				c5.822-13.235,5.09-25.346,2.803-34.276c-2.138-8.35-5.784-14.956-8.458-19.022c-0.129-0.195-0.105-0.47,0.102-0.581
				c0.218-0.118,0.481-0.025,0.627,0.176c2.789,3.847,6.486,9.871,8.884,17.401c3.99,12.535,3.233,24.83-2.224,36.718
				C149.499,110.255,148.979,110.547,148.471,110.403z M151.907,111.162c-0.495-0.08-0.78-0.606-0.575-1.064
				c6.629-14.866,5.193-28.143,2.168-37.606c-2.433-7.609-6.075-13.637-8.9-17.566c-0.138-0.193-0.068-0.464,0.149-0.562
				c0.245-0.107,0.536-0.042,0.702,0.169c2.911,3.672,6.577,9.133,9.214,15.965c5.138,13.309,4.679,26.666-1.329,39.856
				C153.084,110.908,152.507,111.259,151.907,111.162z M155.804,111.523c-0.577-0.017-0.946-0.615-0.715-1.144
				c7.17-16.42,4.915-30.647,1.119-40.478c-2.605-6.75-6.127-12.144-9.035-15.887c-0.165-0.213-0.105-0.534,0.149-0.618
				c0.312-0.104,0.652,0.005,0.865,0.253c2.959,3.464,6.477,8.324,9.222,14.35c6.297,13.822,6.274,28.072-0.026,42.488
				C157.108,111.117,156.49,111.543,155.804,111.523z M160.103,111.313c-0.621,0.077-1.047-0.577-0.809-1.155
				c7.379-17.864,4.195-32.805-0.379-42.845c-2.658-5.836-5.973-10.57-8.87-14.058c-0.188-0.227-0.1-0.583,0.189-0.646
				c0.381-0.083,0.778,0.047,1.04,0.335c2.899,3.188,6.161,7.407,8.882,12.554c7.4,14.006,8.004,28.875,1.836,44.313
				C161.673,110.612,160.96,111.207,160.103,111.313z M164.939,110.316c-0.646,0.188-1.205-0.463-0.969-1.092
				c7.127-19.066,2.975-34.423-2.35-44.5c-2.547-4.815-5.515-8.812-8.251-11.946c-0.222-0.253-0.115-0.669,0.22-0.704
				c0.482-0.051,0.962,0.13,1.295,0.482c2.667,2.803,5.51,6.287,8.021,10.439c8.395,13.877,9.789,29.059,4.193,45.232
				C166.751,109.227,165.953,110.019,164.939,110.316z M169.697,108.463c-0.193,0.095-0.428,0.088-0.598-0.043
				c-0.164-0.127-0.217-0.352-0.15-0.549c0.062-0.188,0.121-0.374,0.182-0.56c0.143-0.442,0.668-0.644,1.033-0.357
				c0.059,0.048,0.117,0.094,0.178,0.142c0.371,0.295,0.311,0.875-0.111,1.095C170.054,108.283,169.876,108.374,169.697,108.463z
				 M173.343,106.326c-0.475,0.323-1.107,0.281-1.553-0.079c-0.357-0.288-0.715-0.571-1.074-0.845
				c-0.502-0.382-0.729-1.031-0.572-1.641c0.125-0.477,0.693-0.68,1.086-0.381c0.74,0.566,1.469,1.155,2.188,1.769
				C173.789,105.467,173.748,106.051,173.343,106.326z M176.16,104.142c-0.418,0.367-1.043,0.37-1.467,0.007
				c-1.014-0.871-2.033-1.686-3.059-2.444c-0.537-0.396-0.764-1.082-0.639-1.737c0.098-0.512,0.695-0.754,1.115-0.444
				c1.385,1.017,2.73,2.118,4.045,3.298C176.55,103.175,176.558,103.792,176.16,104.142z M178.732,101.588
				c-0.395,0.441-1.072,0.416-1.514,0.023c-1.572-1.397-3.16-2.658-4.756-3.79c-0.609-0.432-0.922-1.171-0.834-1.911
				c0.066-0.544,0.672-0.852,1.121-0.54c2.012,1.396,3.961,2.958,5.85,4.686C179.041,100.461,179.13,101.141,178.732,101.588z
				 M181.056,98.627c-0.328,0.48-1.002,0.565-1.434,0.175c-2.189-1.984-4.406-3.703-6.627-5.186
				c-0.676-0.452-1.053-1.238-1.016-2.049c0.023-0.579,0.648-0.948,1.135-0.635c2.684,1.729,5.275,3.746,7.777,6.046
				C181.355,97.402,181.412,98.107,181.056,98.627z M183.091,95.195c-0.279,0.551-1.006,0.661-1.467,0.249
				c-2.785-2.501-5.6-4.59-8.406-6.322c-0.756-0.464-1.209-1.295-1.254-2.181c-0.031-0.614,0.615-1.046,1.146-0.735
				c3.324,1.947,6.535,4.319,9.635,7.102C183.277,93.784,183.414,94.561,183.091,95.195z M184.761,91.219
				c-0.207,0.61-0.963,0.823-1.447,0.4c-3.418-2.984-6.855-5.383-10.262-7.278c-0.85-0.474-1.416-1.334-1.553-2.297
				c-0.092-0.634,0.535-1.156,1.105-0.862c3.959,2.045,7.801,4.657,11.516,7.831C184.757,89.555,185.029,90.427,184.761,91.219z
				 M185.917,86.626c-0.113,0.677-0.924,0.963-1.453,0.524c-4.064-3.356-8.127-5.93-12.111-7.868
				c-0.936-0.455-1.598-1.33-1.846-2.34c-0.164-0.663,0.496-1.233,1.123-0.958c4.549,2,8.98,4.716,13.293,8.135
				C185.679,84.719,186.08,85.676,185.917,86.626z M186.326,81.314c0.012,0.755-0.896,1.098-1.498,0.642
				c-4.639-3.508-9.232-6.076-13.691-7.899c-1.039-0.425-1.838-1.287-2.225-2.342c-0.244-0.67,0.418-1.308,1.09-1.069
				c5.014,1.775,9.934,4.37,14.752,7.785C185.695,79.098,186.308,80.159,186.326,81.314z"/>
		</g>
	</g>
</g>
<g>
	<path d="M115.916,41.494l3.062-2.38c2.241-1.742,4.374-1.312,6.396,1.289c0.6,0.772,0.994,1.53,1.182,2.271
		c0.188,0.744,0.108,1.52-0.241,2.33l6.773,4.472l-2.017,1.568l-6.188-4.298l-1.139,0.886l4.414,5.677l-1.905,1.481L115.916,41.494z
		 M122.438,45.953l1.083-0.843c0.336-0.261,0.568-0.516,0.695-0.764c0.126-0.248,0.175-0.5,0.146-0.758
		c-0.03-0.255-0.125-0.526-0.286-0.811c-0.161-0.284-0.373-0.595-0.633-0.931c-0.261-0.336-0.51-0.617-0.746-0.843
		c-0.236-0.226-0.483-0.384-0.742-0.472c-0.258-0.088-0.527-0.094-0.807-0.016c-0.279,0.077-0.593,0.251-0.941,0.522l-0.99,0.77
		L122.438,45.953z"/>
	<path d="M126.181,34.192l6.43-3.22l1.017,2.031l-4.272,2.14l2.213,4.42l3.722-1.865l1.016,2.031l-3.722,1.865l2.213,4.42
		l4.272-2.14l1.081,2.158l-6.43,3.22L126.181,34.192z"/>
	<path d="M136.447,29.51l3.446-0.941c1.323-0.362,2.436-0.269,3.337,0.278c0.901,0.547,1.533,1.482,1.895,2.806l2.075,7.598
		c0.416,1.522,0.353,2.745-0.188,3.668c-0.541,0.925-1.503,1.576-2.887,1.953l-3.24,0.885L136.447,29.51z M142.614,42.929
		l1.072-0.292c0.654-0.179,1.074-0.469,1.258-0.872c0.185-0.401,0.182-0.952-0.01-1.652l-2.138-7.827
		c-0.175-0.639-0.438-1.098-0.792-1.377c-0.355-0.278-0.874-0.325-1.558-0.138l-1.072,0.293L142.614,42.929z"/>
	<path d="M154.45,26.242l3.522,0.121c0.771,0.027,1.426,0.167,1.961,0.423c0.537,0.255,0.971,0.586,1.303,0.991
		c0.334,0.406,0.566,0.867,0.699,1.384c0.131,0.518,0.188,1.053,0.17,1.604l-0.021,0.614c-0.016,0.457-0.064,0.842-0.146,1.154
		c-0.082,0.313-0.197,0.585-0.348,0.817c-0.15,0.231-0.33,0.434-0.541,0.608s-0.453,0.335-0.727,0.484
		c0.559,0.288,0.961,0.701,1.211,1.237c0.248,0.538,0.359,1.247,0.328,2.129l-0.031,0.946c-0.051,1.481-0.449,2.604-1.193,3.367
		c-0.744,0.764-1.904,1.118-3.48,1.063l-3.285-0.113L154.45,26.242z M156.365,40.745l1.04,0.036
		c0.488,0.017,0.873-0.041,1.154-0.173c0.281-0.133,0.496-0.322,0.646-0.569c0.15-0.248,0.246-0.543,0.291-0.89
		c0.045-0.346,0.072-0.723,0.086-1.133c0.016-0.426,0.004-0.797-0.031-1.114c-0.037-0.317-0.127-0.584-0.27-0.802
		c-0.143-0.218-0.344-0.387-0.609-0.506c-0.264-0.12-0.617-0.187-1.058-0.202l-1.063-0.037L156.365,40.745z M156.624,33.228
		l1.088,0.037c0.803,0.028,1.348-0.154,1.639-0.546c0.289-0.393,0.447-0.975,0.475-1.748c0.025-0.756-0.107-1.329-0.402-1.717
		c-0.295-0.389-0.844-0.597-1.648-0.625l-0.992-0.035L156.624,33.228z"/>
	<path d="M169.386,27.764l1.955,0.466l-0.25,17.254l-2.348-0.56l0.15-3.685l-3.199-0.763l-1.529,3.356l-2.348-0.561L169.386,27.764z
		 M169.25,32.716l-0.045-0.011l-2.568,5.662l2.348,0.56L169.25,32.716z"/>
	<path d="M178.617,30.469l3.508,1.658c2.564,1.211,3.145,3.309,1.736,6.288c-0.418,0.884-0.916,1.578-1.492,2.081
		c-0.578,0.503-1.309,0.782-2.188,0.836l-0.934,8.062l-2.309-1.091l1.041-7.461l-1.305-0.617l-3.072,6.501l-2.182-1.031
		L178.617,30.469z M177.585,38.301l1.238,0.586c0.385,0.182,0.717,0.273,0.996,0.274c0.279,0,0.525-0.069,0.742-0.212
		c0.213-0.143,0.412-0.35,0.594-0.622c0.182-0.271,0.361-0.601,0.545-0.985c0.182-0.385,0.32-0.733,0.414-1.046
		c0.096-0.312,0.125-0.604,0.088-0.875c-0.037-0.27-0.154-0.513-0.35-0.727c-0.195-0.215-0.494-0.416-0.893-0.605l-1.133-0.535
		L177.585,38.301z"/>
	<path d="M189.919,36.364l1.836,1.414l-3.307,10.263l0.037,0.029l6.191-8.04l1.912,1.473l-10.277,13.342l-1.799-1.386l3.256-10.272
		l-0.039-0.029l-6.178,8.02l-1.912-1.473L189.919,36.364z"/>
</g>
<g>
	<path d="M120.105,115.823l5.154-8.521l1.593,1.897l-3.762,5.614l0.029,0.037l6.181-2.734l1.594,1.896l-9.285,3.605l-5.287,4.44
		l-1.504-1.793L120.105,115.823z"/>
	<path d="M132.451,115.074l1.519,1.224l-7.404,15.005l-1.822-1.467l1.666-3.164l-2.483-2.002l-2.737,2.303l-1.823-1.469
		L132.451,115.074z M130.27,119.356l-0.036-0.029l-4.605,3.889l1.822,1.467L130.27,119.356z"/>
	<path d="M137.082,118.643l3.398,1.613c2.486,1.182,3.044,3.215,1.673,6.102c-0.407,0.857-0.891,1.527-1.452,2.016
		c-0.561,0.486-1.27,0.756-2.123,0.805l-0.918,7.816l-2.238-1.061l1.023-7.234l-1.264-0.6l-2.991,6.299l-2.113-1.004
		L137.082,118.643z M136.066,126.235l1.203,0.57c0.373,0.178,0.694,0.268,0.964,0.268c0.271,0.002,0.51-0.064,0.719-0.203
		s0.402-0.338,0.578-0.602c0.175-0.264,0.352-0.582,0.529-0.955c0.177-0.373,0.312-0.711,0.405-1.014
		c0.092-0.303,0.121-0.586,0.085-0.848c-0.037-0.264-0.149-0.498-0.338-0.707c-0.189-0.207-0.478-0.402-0.864-0.588l-1.098-0.521
		L136.066,126.235z"/>
	<path d="M145.003,122.288l2.205,0.438l1.545,10.34l0.045,0.01l1.919-9.65l2.295,0.455l-3.186,16.018l-2.16-0.43l-1.594-10.326
		l-0.045-0.01l-1.915,9.629l-2.294-0.457L145.003,122.288z"/>
	<path d="M166.56,127.401l-2.312,0.355l-0.08-0.521c-0.082-0.529-0.277-0.969-0.586-1.314s-0.758-0.477-1.346-0.385
		c-0.318,0.049-0.568,0.148-0.754,0.301c-0.188,0.154-0.32,0.332-0.404,0.537c-0.084,0.207-0.131,0.438-0.139,0.693
		c-0.006,0.258,0.012,0.521,0.055,0.793c0.047,0.318,0.1,0.586,0.156,0.801c0.057,0.217,0.143,0.395,0.258,0.541
		c0.115,0.145,0.268,0.264,0.461,0.357s0.449,0.178,0.771,0.254l1.875,0.432c0.545,0.117,0.996,0.283,1.354,0.5
		c0.359,0.215,0.652,0.486,0.881,0.816c0.227,0.326,0.408,0.717,0.539,1.17c0.131,0.451,0.242,0.971,0.332,1.562
		c0.105,0.678,0.133,1.32,0.086,1.924c-0.045,0.604-0.193,1.135-0.438,1.598c-0.246,0.463-0.607,0.855-1.084,1.176
		c-0.479,0.32-1.086,0.539-1.826,0.652c-0.559,0.088-1.096,0.068-1.609-0.055c-0.514-0.121-0.971-0.326-1.371-0.613
		c-0.4-0.285-0.736-0.646-1.014-1.084s-0.455-0.928-0.539-1.473l-0.133-0.861l2.312-0.355l0.111,0.725
		c0.064,0.424,0.248,0.785,0.551,1.088c0.301,0.301,0.746,0.406,1.336,0.316c0.393-0.061,0.689-0.164,0.893-0.311
		c0.201-0.146,0.344-0.332,0.426-0.553s0.113-0.486,0.098-0.793s-0.051-0.643-0.107-1.004c-0.064-0.424-0.135-0.77-0.205-1.035
		c-0.074-0.268-0.17-0.479-0.295-0.629c-0.123-0.15-0.281-0.266-0.471-0.346c-0.189-0.078-0.438-0.156-0.744-0.234l-1.76-0.426
		c-1.061-0.254-1.812-0.691-2.256-1.312c-0.443-0.619-0.742-1.436-0.896-2.449c-0.094-0.604-0.098-1.191-0.016-1.762
		c0.082-0.568,0.256-1.076,0.521-1.52c0.264-0.441,0.629-0.818,1.092-1.131c0.461-0.311,1.025-0.516,1.689-0.619
		c0.574-0.088,1.117-0.062,1.627,0.076c0.508,0.139,0.959,0.355,1.352,0.65c0.395,0.295,0.715,0.645,0.961,1.047
		c0.248,0.402,0.406,0.832,0.477,1.285L166.56,127.401z"/>
	<path d="M166.656,122.501l2.166-0.887l2.654,6.473l2.674-1.096l-2.654-6.473l2.166-0.888l6.193,15.111l-2.164,0.889l-2.758-6.729
		l-2.674,1.096l2.758,6.729l-2.166,0.887L166.656,122.501z"/>
	<path d="M176.929,122.202c-0.387-0.531-0.637-1.068-0.748-1.611c-0.111-0.543-0.113-1.059-0.004-1.544
		c0.109-0.485,0.303-0.935,0.582-1.345c0.277-0.41,0.607-0.756,0.992-1.035c0.381-0.278,0.811-0.487,1.287-0.627
		c0.477-0.137,0.961-0.185,1.459-0.139c0.496,0.045,0.984,0.205,1.469,0.478c0.482,0.273,0.918,0.675,1.303,1.207l5.078,6.971
		c0.396,0.545,0.648,1.084,0.754,1.623c0.107,0.535,0.107,1.047-0.002,1.533c-0.109,0.488-0.305,0.936-0.582,1.344
		c-0.277,0.412-0.609,0.756-0.992,1.035s-0.812,0.486-1.287,0.627c-0.477,0.139-0.963,0.186-1.459,0.141
		c-0.498-0.045-0.984-0.201-1.463-0.469c-0.479-0.266-0.914-0.672-1.311-1.215L176.929,122.202z M183.896,127.796
		c0.334,0.459,0.705,0.703,1.115,0.736c0.412,0.029,0.791-0.08,1.137-0.332s0.566-0.578,0.662-0.979
		c0.098-0.4-0.021-0.83-0.355-1.287l-5.076-6.972c-0.334-0.458-0.707-0.701-1.117-0.733c-0.41-0.031-0.789,0.079-1.135,0.331
		s-0.566,0.578-0.664,0.98c-0.096,0.4,0.023,0.829,0.357,1.287L183.896,127.796z"/>
	<path d="M181.849,113.63l2.281-2.667c0.418-0.487,0.85-0.862,1.295-1.125c0.445-0.263,0.961-0.406,1.545-0.43
		c0.582-0.024,1.143,0.092,1.68,0.35c0.533,0.256,1.174,0.703,1.918,1.34c0.545,0.467,0.984,0.898,1.318,1.296
		c0.336,0.397,0.582,0.844,0.74,1.341c0.197,0.592,0.234,1.189,0.115,1.79c-0.123,0.601-0.467,1.232-1.033,1.894l-0.775,0.906
		l4.844,4.146l-1.521,1.777L181.849,113.63z M189.259,116.893l0.73-0.854c0.309-0.36,0.496-0.683,0.561-0.97
		s0.047-0.553-0.055-0.801c-0.1-0.247-0.271-0.489-0.512-0.725c-0.24-0.235-0.518-0.489-0.832-0.757
		c-0.291-0.248-0.574-0.475-0.85-0.682c-0.275-0.206-0.547-0.347-0.814-0.425c-0.268-0.076-0.533-0.069-0.803,0.022
		c-0.27,0.092-0.555,0.312-0.852,0.659l-0.791,0.924L189.259,116.893z"/>
</g>
<g>
	<path d="M102.243,83.929l-0.01,0.172l-0.043,0.581l-0.011,0.107l-0.043,0.076l-0.054,0.043l-1.409,0.042h-0.172l-0.569-0.042
		l-0.172,0.01l-0.559,0.043l-0.172,0.011h-0.742l-0.559-0.043h-0.172l-0.925,0.053l-0.366-0.021l-0.129-0.021l-0.075-0.054
		l-0.032-0.075l-0.021-0.118l-0.021-0.248l-0.011-0.171l0.011-0.162V83.95l0.043-0.57v-0.172l0.011-0.57l-0.011-0.172l-0.032-0.57
		l-0.011-0.172l0.021-0.58V80.23l0.043-0.57l-0.011-0.172l-0.032-0.57l-0.011-0.171v-0.258l0.021-0.323v-0.161l0.032-0.559
		l0.011-0.15l0.032-0.086l0.054-0.042l0.086-0.011l0.14-0.021l0.699,0.042l0.656-0.01h0.172l0.646,0.042h0.172l0.645-0.042h0.172
		l1.462,0.021l0.183-0.011l0.366-0.032h0.269l0.151,0.032l0.064,0.054l0.021,0.075l0.021,0.14v0.291l-0.021,0.269v0.183l0.011,0.269
		l0.011,0.161l-0.011,0.162l-0.021,0.129l-0.043,0.075l-0.054,0.043l-0.129,0.021h-0.085l-0.172,0.011l-1.011-0.022h-0.172
		l-0.548,0.022h-0.172l-0.56-0.022l-0.483-0.032h-0.162l-0.086,0.011l-0.107,0.021l-0.054,0.054l-0.011,0.064l-0.021,0.118
		l-0.021,0.258v0.172l0.011,0.183l0.011,0.118l0.021,0.075l0.043,0.054l0.119,0.032l0.344,0.021l0.344-0.021h1.021l1.205-0.064
		l0.333,0.021l0.118,0.022l0.064,0.053l0.032,0.064l0.011,0.119l0.022,0.183l0.01,0.183v0.354l0.022,0.247l-0.022,0.323
		l-0.021,0.129l-0.043,0.075l-0.075,0.054l-0.107,0.021h-0.215l-0.484-0.054l-0.172-0.011l-0.86,0.054l-0.688-0.022h-0.172
		l-0.43-0.032l-0.183,0.011l-0.129,0.011l-0.054,0.032l-0.032,0.075l-0.011,0.162l-0.032,0.269l-0.011,0.171v0.237l0.011,0.107
		l0.032,0.075l0.043,0.043l0.118,0.01l0.592,0.022h0.172l0.581-0.043l0.763,0.043h0.172l0.763-0.043h0.161l0.161,0.011l0.387,0.042
		l0.065,0.032l0.042,0.064l0.011,0.118L102.243,83.929z"/>
	<path d="M110.264,82.531l-0.011,0.184l-0.021,0.183l-0.032,0.171l-0.054,0.237l-0.053,0.15l-0.097,0.215l-0.075,0.14l-0.129,0.194
		l-0.107,0.129l-0.129,0.128l-0.129,0.119l-0.215,0.14l-0.14,0.097l-0.161,0.086l-0.151,0.076l-0.247,0.086l-0.323,0.107
		l-0.172,0.032l-0.269,0.043l-0.161,0.021l-0.237,0.021l-0.15,0.011l-0.247,0.011l-0.516,0.032H106.2l-0.15-0.011l-0.247-0.021
		l-0.161-0.022l-0.183-0.032l-0.161-0.054l-0.237-0.075l-0.15-0.076l-0.161-0.075l-0.15-0.076l-0.14-0.086l-0.344-0.236
		l-0.129-0.107l-0.194-0.15l-0.129-0.108l-0.119-0.118l-0.085-0.097l-0.011-0.076l0.054-0.097l0.042-0.054l0.108-0.118l0.301-0.279
		l0.096-0.118l0.183-0.279l0.097-0.119l0.107-0.118l0.118-0.064l0.119,0.021l0.118,0.086l0.344,0.237l0.161,0.086l0.15,0.076
		l0.247,0.118l0.162,0.053l0.172,0.054l0.172,0.032l0.248,0.011l0.172,0.01l0.678-0.043l0.172-0.021l0.086-0.021l0.161-0.064
		l0.14-0.086l0.107-0.108l0.054-0.075l0.064-0.162l-0.011-0.183l-0.021-0.086l-0.086-0.15l-0.053-0.064l-0.14-0.107l-0.086-0.032
		l-0.161-0.065l-0.183-0.042l-0.183-0.032l-1.021-0.097l-0.322-0.064l-0.172-0.043l-0.237-0.086l-0.161-0.054l-0.162-0.075
		l-0.365-0.183l-0.14-0.097l-0.162-0.097l-0.14-0.097l-0.183-0.15l-0.097-0.14l-0.097-0.161l-0.064-0.161l-0.075-0.226l-0.032-0.161
		l-0.032-0.237l-0.021-0.344l0.011-0.172l0.021-0.257l0.032-0.162l0.043-0.14l0.054-0.162l0.107-0.236l0.075-0.151l0.086-0.128
		l0.107-0.119l0.172-0.161l0.14-0.108l0.14-0.097l0.15-0.076l0.204-0.118l0.323-0.129l0.161-0.054l0.248-0.043l0.172-0.032
		l0.322-0.043l0.237-0.043l0.172-0.021l0.161-0.011h0.172l0.322,0.032l0.162,0.021l0.075,0.022l0.172,0.021l0.366,0.064l0.183,0.043
		l0.172,0.053l0.183,0.054l0.172,0.064l0.162,0.076l0.161,0.064l0.204,0.118l0.15,0.075l0.14,0.098l0.097,0.096v0.108l-0.064,0.118
		l-0.118,0.216l-0.086,0.128l-0.408,0.538l-0.118,0.151l-0.129,0.107l-0.086,0.032l-0.075-0.011l-0.107-0.053l-0.162-0.097
		l-0.161-0.064l-0.075-0.032l-0.161-0.054l-0.086-0.021l-0.183-0.043l-0.247-0.054l-0.172-0.011l-0.279-0.021h-0.28l-0.183,0.011
		l-0.183,0.032l-0.172,0.053l-0.064,0.033l-0.129,0.097l-0.054,0.064l-0.075,0.15l-0.021,0.172l0.032,0.139l0.086,0.14l0.118,0.107
		l0.129,0.064l0.075,0.032l0.161,0.032l0.269,0.032l0.366,0.021l0.183,0.032l0.366,0.086l0.344,0.107l0.247,0.054l0.161,0.043
		l0.301,0.107l0.215,0.096l0.15,0.076l0.15,0.086l0.14,0.086l0.312,0.257l0.118,0.13l0.107,0.128l0.129,0.194l0.085,0.139
		l0.075,0.162l0.043,0.161l0.043,0.236l0.021,0.161L110.264,82.531z"/>
	<path d="M117.468,78.027l-0.011,0.161l0.011,0.323l-0.011,0.172l-0.011,0.085l-0.021,0.129l-0.032,0.075l-0.065,0.054l-0.128,0.022
		h-0.172l-0.322-0.032l-0.172-0.011l-0.495,0.032h-0.172l-0.269-0.021h-0.162l-0.075,0.01l-0.107,0.032l-0.043,0.064l-0.011,0.14
		l-0.043,0.634v0.172l0.043,0.646l-0.011,0.171l-0.043,0.646l-0.01,0.172l0.021,0.634v0.989l-0.021,0.634l0.01,0.162l0.054,0.484
		l0.011,0.172l-0.033,0.129l-0.053,0.054l-0.14,0.022l-0.205-0.011l-0.269-0.032l-0.183-0.01l-0.484,0.032h-0.172l-0.484-0.032
		l-0.129-0.011l-0.064-0.032l-0.021-0.119v-0.183l0.032-0.451l0.011-0.172v-0.807l0.011-0.645v-0.172l0.011-0.634v-0.172
		l-0.043-0.646l-0.011-0.171v-0.817l-0.021-0.634v-0.15l-0.032-0.086l-0.107-0.021h-0.162l-0.344,0.021h-0.194l-0.29-0.021
		l-0.183-0.011l-0.183,0.011l-0.247,0.011h-0.161l-0.086-0.011l-0.118-0.021l-0.064-0.043l-0.043-0.064l-0.022-0.108v-0.075
		l-0.01-0.172l0.021-0.323v-0.161l-0.032-0.409l0.011-0.171l0.032-0.14l0.043-0.076l0.064-0.032l0.107-0.021h0.248l0.397,0.032
		h0.172l0.624-0.043h0.172l0.634,0.054h0.172l0.796-0.054l0.624,0.011h0.172l0.806-0.011h0.795l0.355-0.022l0.183,0.011l0.086,0.011
		l0.128,0.021l0.075,0.043l0.054,0.076l0.021,0.128v0.076l0.011,0.161L117.468,78.027z"/>
</g>
<g>
	<path d="M196.796,83.048l0.012,0.054l0.107,0.021l0.15,0.011l0.408-0.011h0.871l0.549,0.011h0.172l1.258-0.021l0.172-0.011
		l0.355-0.033h0.182l0.141,0.033l0.064,0.097l0.021,0.15l0.01,0.161l0.012,0.172v0.441l0.021,0.269l-0.012,0.172l-0.01,0.151
		l-0.021,0.107l-0.043,0.064l-0.064,0.032l-0.344,0.054l-0.152,0.011l-0.236-0.011l-0.16-0.011l-0.785-0.043h-0.604l-0.945,0.054
		h-1.559l-0.785-0.011l-0.602-0.021l-0.129-0.01l-0.076-0.043l-0.021-0.064l-0.01-0.119l0.021-0.645v-0.172l-0.033-0.656
		l0.012-0.172l0.031-0.323l0.064-0.323l0.033-0.171l0.055-0.183l0.053-0.172l0.031-0.086l0.076-0.172l0.086-0.139l0.184-0.194
		l0.117-0.107l0.193-0.151l0.129-0.085l0.215-0.14l0.141-0.076l0.227-0.107l0.16-0.054l0.27-0.086l0.182-0.042l0.184-0.032
		l0.172-0.022l0.549-0.032l0.096-0.011l0.195-0.01l0.268-0.011l0.193-0.043l0.086-0.042l0.162-0.097l0.074-0.076l0.098-0.14
		l0.064-0.226v-0.237l-0.021-0.086l-0.055-0.172l-0.043-0.075l-0.107-0.129l-0.139-0.064l-0.238-0.064l-0.15-0.021l-0.16-0.011
		h-0.162l-0.15,0.011l-0.15,0.032l-0.227,0.075l-0.139,0.075l-0.064,0.043l-0.107,0.118l-0.055,0.064l-0.074,0.161l-0.055,0.15
		l-0.096,0.065l-0.162,0.043h-0.096l-0.184,0.01l-0.451-0.021h-0.451l-0.184-0.011l-0.279-0.032l-0.139-0.021l-0.076-0.043
		l-0.033-0.054v-0.183l0.021-0.161l0.023-0.097l0.031-0.172l0.021-0.075l0.053-0.161l0.107-0.205l0.088-0.15l0.096-0.14l0.117-0.139
		l0.131-0.118l0.129-0.108l0.203-0.14l0.15-0.086l0.324-0.171l0.182-0.076l0.172-0.054l0.236-0.053l0.174-0.032l0.16-0.033
		l0.15-0.021l0.236-0.011l0.172-0.01h0.355l0.248-0.011h0.17l0.162,0.011l0.162,0.032l0.225,0.054l0.162,0.054l0.344,0.107
		l0.16,0.054l0.162,0.064l0.227,0.108l0.15,0.086l0.139,0.119l0.141,0.139l0.117,0.14l0.107,0.14l0.141,0.193l0.076,0.15
		l0.074,0.162l0.055,0.161l0.053,0.15l0.033,0.161l0.031,0.258v0.162l-0.01,0.236l-0.021,0.15l-0.055,0.248l-0.043,0.161
		l-0.064,0.183l-0.074,0.162l-0.119,0.205l-0.096,0.139l-0.141,0.183l-0.119,0.118l-0.172,0.162l-0.139,0.086l-0.227,0.118
		l-0.162,0.064l-0.182,0.053l-0.172,0.054l-0.184,0.032l-0.172,0.032l-0.246,0.022l-0.172,0.021l-0.184,0.032l-0.172,0.032
		l-0.258,0.021l-0.184,0.011h-0.086l-0.193,0.01h-0.086l-0.182,0.033l-0.086,0.032l-0.162,0.075l-0.064,0.054l-0.117,0.119
		l-0.088,0.128l-0.064,0.151l-0.021,0.086l-0.031,0.14L196.796,83.048z"/>
	<path d="M209.462,80.479l0.012,0.171l-0.012,0.366v0.634l-0.01,0.237l-0.012,0.161l-0.012,0.236l-0.031,0.162l-0.043,0.247
		l-0.107,0.344l-0.074,0.162l-0.109,0.215l-0.096,0.151l-0.107,0.161l-0.109,0.151l-0.117,0.15l-0.129,0.129l-0.172,0.183
		l-0.129,0.097l-0.215,0.108l-0.141,0.075l-0.215,0.097l-0.15,0.064l-0.225,0.086l-0.152,0.053l-0.236,0.054l-0.16,0.032
		l-0.184,0.021l-0.182,0.011l-0.26,0.021l-0.17-0.01l-0.281-0.022l-0.172-0.021l-0.58-0.097l-0.162-0.032l-0.225-0.064l-0.162-0.064
		l-0.236-0.107l-0.162-0.097l-0.15-0.097l-0.139-0.097l-0.205-0.151l-0.117-0.107l-0.162-0.183l-0.096-0.118l-0.15-0.205
		l-0.076-0.14l-0.117-0.204l-0.055-0.15l-0.076-0.247l-0.031-0.151l-0.055-0.236l-0.021-0.161l-0.031-0.184l-0.021-0.171
		l-0.012-0.28l-0.01-0.161l0.01-0.409V80.65l0.021-0.344l0.033-0.172l0.043-0.279l0.043-0.172l0.043-0.237l0.043-0.161l0.064-0.226
		l0.053-0.161l0.064-0.162l0.076-0.161l0.129-0.237l0.107-0.15l0.172-0.193l0.141-0.118l0.15-0.118l0.139-0.098l0.217-0.118
		l0.139-0.075l0.377-0.162l0.289-0.107l0.162-0.054l0.16-0.043l0.172-0.021l0.281-0.01h0.172l0.549,0.021l0.17,0.011l0.26,0.043
		l0.172,0.021l0.418,0.097l0.184,0.054l0.172,0.064l0.162,0.064l0.15,0.076l0.246,0.139l0.141,0.098l0.117,0.118l0.119,0.139
		l0.172,0.215l0.098,0.151l0.15,0.236l0.074,0.15l0.064,0.162l0.064,0.151l0.076,0.247l0.053,0.162l0.043,0.183l0.033,0.171
		l0.031,0.237l0.023,0.162L209.462,80.479z M204.882,82.715l0.107,0.139l0.119,0.129l0.139,0.085l0.064,0.043l0.172,0.054
		l0.193,0.032l0.184,0.011h0.193l0.27-0.022l0.172-0.042l0.16-0.064l0.15-0.097l0.055-0.054l0.117-0.14l0.098-0.172l0.074-0.161
		l0.109-0.366l0.031-0.172l0.012-0.258l0.031-0.516v-0.172l0.01-0.323l-0.01-0.161l-0.021-0.258l-0.043-0.171l-0.055-0.183
		l-0.064-0.162l-0.117-0.237l-0.086-0.139l-0.129-0.13l-0.141-0.107l-0.15-0.076l-0.074-0.021l-0.162-0.053l-0.162-0.011
		l-0.074-0.011h-0.172l-0.184,0.032l-0.076,0.011l-0.16,0.054l-0.16,0.086l-0.193,0.128l-0.119,0.119l-0.117,0.162l-0.098,0.161
		l-0.064,0.194l-0.043,0.183l-0.021,0.183l-0.012,0.247v0.161l-0.01,0.323v0.172l-0.012,0.345v0.171l0.021,0.269l0.021,0.172
		l0.043,0.183l0.055,0.15l0.021,0.076l0.074,0.139L204.882,82.715z"/>
	<path d="M214.699,84.499v0.183l-0.033,0.14l-0.074,0.064l-0.076,0.054l-0.074,0.032h-0.312l-0.463-0.022h-0.172l-1.451-0.021
		h-0.172l-1.086,0.042l-0.355-0.022l-0.117-0.032l-0.043-0.032l-0.021-0.064l-0.012-0.107v-0.248l0.021-0.323l-0.01-0.171
		l-0.043-0.323v-0.162l0.012-0.075l0.041-0.118l0.119-0.021l0.43,0.032h0.172l0.248-0.011l0.129-0.021l0.064-0.032l0.031-0.075
		v-0.764l0.012-0.172l0.043-0.645v-0.162l-0.012-0.236l-0.021-0.161l-0.01-0.269l-0.012-0.172l0.021-0.279l0.021-0.366v-0.118
		l-0.031-0.064l-0.064-0.043l-0.098-0.011l-0.387,0.129l-0.16,0.043l-0.162,0.021h-0.139l-0.098-0.043l-0.043-0.076l-0.033-0.107
		l-0.01-0.086v-0.172l0.021-0.269v-0.183l-0.021-0.333v-0.183l0.021-0.14l0.043-0.064l0.053-0.043l0.107-0.053l0.098-0.032
		l0.162-0.065l0.311-0.097l0.15-0.054l0.57-0.215l0.16-0.054l0.57-0.183l0.162-0.064l0.246-0.118l0.184-0.075l0.162-0.043
		l0.129-0.011l0.107,0.032l0.053,0.075l0.033,0.129l0.021,0.129l-0.012,0.128l-0.021,0.419l-0.01,0.172v1.677l-0.033,0.656v0.172
		l0.043,0.666l-0.01,0.172l-0.043,0.656l-0.012,0.172l0.043,0.667l0.012,0.107l0.031,0.064l0.064,0.043l0.129,0.011l0.775,0.01
		l0.064,0.022l0.043,0.096l0.01,0.076l0.012,0.161l-0.021,0.323v0.171L214.699,84.499z"/>
	<path d="M221.386,77.919l-0.012,0.172l-0.053,0.172l-0.27,0.504l-0.064,0.151l-0.205,0.537l-0.074,0.151l-0.279,0.505l-0.076,0.15
		l-0.246,0.517l-0.064,0.15l-0.238,0.526l-0.074,0.15l-0.27,0.505l-0.086,0.151l-0.256,0.495l-0.076,0.15l-0.227,0.538l-0.064,0.151
		l-0.246,0.516l-0.076,0.15l-0.279,0.495l-0.074,0.118l-0.064,0.054l-0.131,0.032h-0.086l-0.172,0.011l-0.914-0.022l-0.482,0.033
		h-0.152l-0.064-0.011l-0.129-0.042l-0.074-0.086l-0.01-0.097l0.053-0.118l0.279-0.527l0.086-0.151l0.258-0.548l0.076-0.15
		l0.225-0.56l0.076-0.15l0.279-0.538l0.076-0.15l0.258-0.549l0.074-0.15l0.602-1.226l0.086-0.151l0.27-0.538l0.031-0.139
		l-0.064-0.086l-0.139-0.022l-0.58-0.021h-0.172l-0.582,0.032h-0.172l-0.59-0.011h-0.162l-0.322,0.022h-0.174l-0.096-0.011
		l-0.15-0.043l-0.096-0.086l-0.033-0.129l-0.01-0.15l0.01-0.162l0.043-0.279l0.012-0.172l-0.021-0.323V77.5l0.01-0.086l0.031-0.15
		l0.064-0.086l0.131-0.043h0.225l0.441,0.054l0.172,0.01l0.828-0.021l0.656-0.032h0.172l0.656,0.032h0.172l0.654-0.011h0.174
		l0.654,0.011l0.625-0.043h0.193l0.16,0.043l0.064,0.086l0.033,0.14l0.031,0.257L221.386,77.919z"/>
</g>
<rect y="156.052" fill="#D7172F" width="314.8" height="64"/>
<g>
	<path fill="#FFFFFF" d="M45.162,176.776c-1.43-0.495-3.299-0.936-5.169-0.936c-5.334,0-7.039,2.75-7.039,4.895
		c0,2.805,2.035,3.63,4.564,4.234l4.619,1.155c5.664,1.43,11.934,3.3,11.934,11.273c0,7.313-4.95,12.648-15.893,12.648
		c-4.234,0-8.634-0.44-13.803-2.145v-10.174h8.029v5.059c2.035,0.825,4.235,0.99,6.489,0.99c4.729,0,6.819-2.255,6.819-5.169
		c0-1.979-1.1-3.41-6.27-4.729l-4.234-1.1c-7.919-2.035-10.613-5.114-10.613-11.054c0-6.104,4.289-11.493,15.178-11.493
		c4.674,0,9.349,0.77,12.648,2.034v9.184h-7.259V176.776z"/>
	<path fill="#FFFFFF" d="M83.936,196.408H70.683l-2.75,7.369h3.685v5.609H57.319v-5.609h3.08l13.528-32.886h8.854l12.703,32.886
		h3.08v5.609H83.276v-5.609h3.134L83.936,196.408z M79.151,182.44c-0.605-1.705-1.155-3.574-1.43-5.609h-0.11
		c-0.44,2.035-1.044,3.85-1.705,5.609l-2.97,8.028h8.964L79.151,182.44z"/>
	<path fill="#FFFFFF" d="M121.612,170.891h14.958v5.609h-2.97l-12.924,32.886h-8.963L98.79,176.501h-3.08v-5.609h15.618v5.609
		h-3.244l7.534,21.997c0.494,1.43,0.935,3.024,1.154,4.619h0.11c0.22-1.595,0.66-3.189,1.154-4.619l7.534-21.997h-3.959V170.891z"/>
	<path fill="#FFFFFF" d="M160.716,197.288h6.599l-0.439,12.099h-27.661v-5.609h3.464v-27.276h-4.124v-5.609h28.156l0.33,11.329h-6.6
		l-0.33-5.72h-9.403v10.119h9.679v5.938h-9.679v11.219h9.568L160.716,197.288z"/>
	<path fill="#FFFFFF" d="M187.228,204.107c4.179-2.915,19.907-14.958,19.907-22.602c0-3.96-3.135-5.279-5.39-5.279
		c-3.959,0-6.214,2.859-6.6,6.488h-7.698c0-4.399,3.024-12.758,14.628-12.758c5.884,0,13.088,2.914,13.088,11.163
		c0,7.754-7.699,14.849-16.992,22.218v0.109c1.265-0.165,2.749-0.33,3.959-0.33h14.188v6.27h-29.091V204.107z"/>
	<path fill="#FFFFFF" d="M222.591,170.891h23.702v5.609h-16.003v7.81c7.039,0,17.652,1.924,17.652,12.098
		c0,8.469-5.884,13.913-16.277,13.913c-3.739,0-7.369-0.77-10.063-1.704v-6.27c1.814,0.88,6.489,1.705,9.844,1.705
		c6.159,0,8.469-3.189,8.469-6.6c0-5.334-4.729-7.148-17.323-7.204V170.891z"/>
	<path fill="#FFFFFF" d="M261.697,187.719c-6.104,0-9.129-3.354-9.129-8.854c0-5.72,4.344-8.909,9.403-8.909
		c6.654,0,9.129,4.619,9.129,8.688C271.1,184.53,266.755,187.719,261.697,187.719z M261.917,174.356
		c-2.75,0-3.739,2.199-3.739,4.675c0,2.254,0.935,4.289,3.574,4.289c2.914,0,3.739-2.529,3.739-4.619
		C265.491,176.336,264.501,174.356,261.917,174.356z M282.814,167.702l4.399,2.42l-23.152,42.454l-4.399-2.42L282.814,167.702z
		 M284.904,210.321c-6.104,0-9.129-3.354-9.129-8.854c0-5.72,4.344-8.909,9.403-8.909c6.654,0,9.129,4.62,9.129,8.689
		C294.307,207.132,289.962,210.321,284.904,210.321z M285.124,196.958c-2.75,0-3.739,2.2-3.739,4.675
		c0,2.255,0.935,4.289,3.574,4.289c2.914,0,3.739-2.529,3.739-4.619C288.698,198.938,287.708,196.958,285.124,196.958z"/>
</g>
</svg>
